<?xml version="1.0" encoding="utf-8"?>
<!-- Generator: Adobe Illustrator 28.1.0, SVG Export Plug-In . SVG Version: 6.00 Build 0)  -->
<!DOCTYPE svg PUBLIC "-//W3C//DTD SVG 1.1//EN" "http://www.w3.org/Graphics/SVG/1.1/DTD/svg11.dtd" [
	<!ENTITY ns_extend "http://ns.adobe.com/Extensibility/1.0/">
	<!ENTITY ns_ai "http://ns.adobe.com/AdobeIllustrator/10.0/">
	<!ENTITY ns_graphs "http://ns.adobe.com/Graphs/1.0/">
	<!ENTITY ns_vars "http://ns.adobe.com/Variables/1.0/">
	<!ENTITY ns_imrep "http://ns.adobe.com/ImageReplacement/1.0/">
	<!ENTITY ns_sfw "http://ns.adobe.com/SaveForWeb/1.0/">
	<!ENTITY ns_custom "http://ns.adobe.com/GenericCustomNamespace/1.0/">
	<!ENTITY ns_adobe_xpath "http://ns.adobe.com/XPath/1.0/">
]>
<svg version="1.1" xmlns:x="&ns_extend;" xmlns:i="&ns_ai;" xmlns:graph="&ns_graphs;"
	 xmlns="http://www.w3.org/2000/svg" xmlns:xlink="http://www.w3.org/1999/xlink" x="0px" y="0px" width="750px" height="750px"
	 viewBox="0 0 750 750" enable-background="new 0 0 750 750" xml:space="preserve">
<metadata>
	<sfw  xmlns="&ns_sfw;">
		<slices></slices>
		<sliceSourceBounds  bottomLeftOrigin="true" height="7039.058" width="10061.107" x="-3495.107" y="1035.782">
			</sliceSourceBounds>
	</sfw>
</metadata>
<g id="FILL-BACKGROUND">
	<rect fill="#FFFFFF" width="750" height="750"/>
</g>
<g id="N-DIMENSIONS">
</g>
<g id="N-TEXT">
</g>
<g id="_x32_D_x24_AG-DIAGRAM">
	<g id="POLYLINE_00000046340210824231722910000006841623156002317492_">
		<g>
			<g>
				<polyline fill="none" stroke="#3A54F5" stroke-width="3" stroke-linecap="round" stroke-linejoin="round" points="
					180.375,635.5 180.375,637.5 182.375,637.5 				"/>
				
					<line fill="none" stroke="#3A54F5" stroke-width="3" stroke-linecap="round" stroke-linejoin="round" stroke-dasharray="3.9922,5.9883" x1="188.364" y1="637.5" x2="564.63" y2="637.5"/>
				<polyline fill="none" stroke="#3A54F5" stroke-width="3" stroke-linecap="round" stroke-linejoin="round" points="
					567.625,637.5 569.625,637.5 569.625,635.5 				"/>
				
					<line fill="none" stroke="#3A54F5" stroke-width="3" stroke-linecap="round" stroke-linejoin="round" stroke-dasharray="3.962,5.943" x1="569.625" y1="629.557" x2="569.625" y2="117.472"/>
				<polyline fill="none" stroke="#3A54F5" stroke-width="3" stroke-linecap="round" stroke-linejoin="round" points="
					569.625,114.5 569.625,112.5 567.625,112.5 				"/>
				
					<line fill="none" stroke="#3A54F5" stroke-width="3" stroke-linecap="round" stroke-linejoin="round" stroke-dasharray="3.9922,5.9883" x1="561.636" y1="112.5" x2="185.37" y2="112.5"/>
				<polyline fill="none" stroke="#3A54F5" stroke-width="3" stroke-linecap="round" stroke-linejoin="round" points="
					182.375,112.5 180.375,112.5 180.375,114.5 				"/>
				
					<line fill="none" stroke="#3A54F5" stroke-width="3" stroke-linecap="round" stroke-linejoin="round" stroke-dasharray="3.962,5.943" x1="180.375" y1="120.443" x2="180.375" y2="632.528"/>
			</g>
		</g>
	</g>
</g>
<g id="_x32_D_x24_AG-DETAILS-DIAGRAM">
</g>
<g id="_x32_D_x24_AG-FURNITURE">
	<g id="POLYLINE_00000029759449035591596600000017303519732169310882_">
		
			<path fill="none" stroke="#3A54F5" stroke-width="2.5" stroke-linecap="round" stroke-linejoin="round" stroke-miterlimit="10" d="
			M392.225,182.193c-0.012-0.611,0.036-1.408-0.067-2.006c-0.024-0.111-0.059-0.222-0.119-0.32c-0.084-0.14-0.22-0.238-0.361-0.315
			c-0.11-0.06-0.23-0.106-0.349-0.145c-0.557-0.176-1.207-0.29-1.782-0.405"/>
	</g>
	<g id="POLYLINE_00000057107786701783755720000001460122848897856650_">
		
			<path fill="none" stroke="#3A54F5" stroke-width="2.5" stroke-linecap="round" stroke-linejoin="round" stroke-miterlimit="10" d="
			M357.775,182.193c0.012-0.611-0.036-1.408,0.067-2.006c0.024-0.111,0.059-0.222,0.119-0.32c0.084-0.14,0.22-0.238,0.361-0.315
			c0.11-0.06,0.23-0.106,0.349-0.145c0.557-0.176,1.207-0.29,1.782-0.405"/>
	</g>
	<g id="POLYLINE_00000128452602900998343450000002328514747141476789_">
		
			<rect x="324.986" y="198.238" fill="none" stroke="#3A54F5" stroke-width="2.5" stroke-linecap="round" stroke-linejoin="round" stroke-miterlimit="10" width="100.027" height="50.014"/>
	</g>
	<g id="POLYLINE_00000127018022040488727510000001899321816463946146_">
		
			<line fill="none" stroke="#3A54F5" stroke-width="2.5" stroke-linecap="round" stroke-linejoin="round" stroke-miterlimit="10" x1="359.357" y1="183.036" x2="357.595" y2="184.505"/>
	</g>
	<g id="POLYLINE_00000172405941292346345450000008223096056866607758_">
		
			<line fill="none" stroke="#3A54F5" stroke-width="2.5" stroke-linecap="round" stroke-linejoin="round" stroke-miterlimit="10" x1="356.323" y1="183.771" x2="357.775" y2="182.193"/>
	</g>
	<g id="POLYLINE_00000132768448206037249860000007477514667887601280_">
		
			<line fill="none" stroke="#3A54F5" stroke-width="2.5" stroke-linecap="round" stroke-linejoin="round" stroke-miterlimit="10" x1="390.643" y1="183.036" x2="392.405" y2="184.505"/>
	</g>
	<g id="POLYLINE_00000178194916806830110470000010722778314071798173_">
		
			<line fill="none" stroke="#3A54F5" stroke-width="2.5" stroke-linecap="round" stroke-linejoin="round" stroke-miterlimit="10" x1="393.677" y1="183.771" x2="392.225" y2="182.193"/>
	</g>
	<g id="POLYLINE_00000023966114762591626150000012559436973186442119_">
		
			<path fill="none" stroke="#3A54F5" stroke-width="2.5" stroke-linecap="round" stroke-linejoin="round" stroke-miterlimit="10" d="
			M387.854,180.261c0.448,0.397,0.872,0.836,1.193,1.344c0.292,0.457,0.487,0.971,0.622,1.495c0.379,1.554,0.533,3.221,0.688,4.811
			c0.273,3.365,0.473,6.953,0.457,10.327"/>
	</g>
	<g id="POLYLINE_00000066476467704634246240000008497869837735068350_">
		
			<path fill="none" stroke="#3A54F5" stroke-width="2.5" stroke-linecap="round" stroke-linejoin="round" stroke-miterlimit="10" d="
			M394.551,198.238c-0.314-0.033-0.642-0.099-0.894-0.3c-0.417-0.337-0.536-0.897-0.632-1.398c-0.322-1.951-0.517-9.3-0.644-11.373
			c-0.001-0.292-0.021-0.601,0.081-0.879c0.09-0.239,0.323-0.367,0.559-0.428c0.735-0.172,1.555-0.105,2.254,0.178
			c0.465,0.189,0.868,0.484,1.078,0.952c0.107,0.226,0.173,0.472,0.224,0.716c0.311,2.065,0.527,5.488,0.715,7.564
			c0.071,1.216,0.196,2.541,0.095,3.755c-0.021,0.177-0.055,0.358-0.134,0.519c-0.08,0.169-0.223,0.301-0.387,0.389
			c-0.405,0.21-0.872,0.259-1.32,0.306"/>
	</g>
	<g id="POLYLINE_00000128482876861544051850000003717214733402676411_">
		
			<path fill="none" stroke="#3A54F5" stroke-width="2.5" stroke-linecap="round" stroke-linejoin="round" stroke-miterlimit="10" d="
			M355.449,198.238c0.314-0.033,0.642-0.099,0.894-0.3c0.417-0.337,0.536-0.897,0.632-1.398c0.322-1.951,0.517-9.3,0.644-11.373
			c0.001-0.292,0.021-0.601-0.081-0.879c-0.09-0.239-0.323-0.367-0.559-0.428c-0.735-0.172-1.555-0.105-2.254,0.178
			c-0.465,0.189-0.868,0.484-1.078,0.952c-0.107,0.226-0.173,0.472-0.224,0.716c-0.311,2.065-0.527,5.488-0.715,7.564
			c-0.071,1.216-0.196,2.541-0.095,3.755c0.021,0.177,0.055,0.358,0.134,0.519c0.08,0.169,0.223,0.301,0.387,0.389
			c0.405,0.21,0.872,0.259,1.32,0.306"/>
	</g>
	<g id="POLYLINE_00000078044667846224283960000003559383395088922251_">
		
			<path fill="none" stroke="#3A54F5" stroke-width="2.5" stroke-linecap="round" stroke-linejoin="round" stroke-miterlimit="10" d="
			M359.186,198.238c-0.016-3.374,0.185-6.963,0.457-10.327c0.155-1.591,0.309-3.257,0.688-4.811c0.135-0.523,0.33-1.038,0.622-1.495
			c0.321-0.508,0.745-0.947,1.193-1.344"/>
	</g>
	<g id="POLYLINE_00000030475162614713394360000007519782499753432499_">
		
			<path fill="none" stroke="#3A54F5" stroke-width="2.5" stroke-linecap="round" stroke-linejoin="round" stroke-miterlimit="10" d="
			M390.863,175.239c-0.094-0.081-0.161-0.194-0.187-0.315c-0.007-0.035-0.012-0.071-0.013-0.106c-0.003-0.017,0.002-2.473,0-2.49
			c-0.001-0.166,0.075-0.331,0.202-0.439c0.068-0.058,0.15-0.1,0.237-0.122c0.182-0.039,1.446-0.007,1.706-0.017
			c0.199-0.001,0.394,0.109,0.495,0.28c0.054,0.089,0.082,0.193,0.082,0.297v2.475c0,0.019-0.001,0.039-0.003,0.058
			c-0.007,0.067-0.026,0.133-0.055,0.194c-0.061,0.127-0.17,0.229-0.3,0.282c-0.109,0.049-0.234,0.044-0.351,0.043"/>
	</g>
	<g id="POLYLINE_00000120549432916156459790000004628390224623365283_">
		
			<path fill="none" stroke="#3A54F5" stroke-width="2.5" stroke-linecap="round" stroke-linejoin="round" stroke-miterlimit="10" d="
			M359.137,175.239c0.094-0.081,0.161-0.194,0.187-0.315c0.007-0.035,0.012-0.071,0.013-0.106c0.003-0.017-0.002-2.473,0-2.49
			c0.001-0.166-0.075-0.331-0.202-0.439c-0.068-0.058-0.15-0.1-0.237-0.122c-0.182-0.039-1.446-0.007-1.706-0.017
			c-0.199-0.001-0.394,0.109-0.495,0.28c-0.054,0.089-0.082,0.193-0.082,0.297v2.475c0,0.019,0.001,0.039,0.003,0.058
			c0.007,0.067,0.026,0.133,0.055,0.194c0.061,0.127,0.17,0.229,0.3,0.282c0.109,0.049,0.234,0.044,0.351,0.043"/>
	</g>
	<g id="POLYLINE_00000071554392683526606440000002463655747712577700_">
		
			<path fill="none" stroke="#3A54F5" stroke-width="2.5" stroke-linecap="round" stroke-linejoin="round" stroke-miterlimit="10" d="
			M375,168.472c2.969,0.001,5.979,0.509,8.7,1.725c1.693,0.758,3.289,1.806,4.513,3.213c0.399,0.46,0.777,0.956,1.107,1.468
			c0.241,0.38,0.453,0.788,0.558,1.228c0.133,0.557,0.119,1.142,0.029,1.705c-0.075,0.461-0.203,0.921-0.431,1.33
			c-0.293,0.522-0.781,1.076-1.417,1.121c-0.207,0.014-0.415-0.027-0.61-0.093c-0.692-0.239-1.415-0.769-2.034-1.162
			c-1.236-0.816-2.611-1.421-4.019-1.872c-2.056-0.676-4.232-0.998-6.395-0.984c-2.163-0.014-4.339,0.308-6.395,0.984
			c-1.408,0.451-2.783,1.056-4.019,1.872c-0.613,0.394-1.342,0.92-2.034,1.162c-0.196,0.066-0.403,0.107-0.61,0.093
			c-0.637-0.045-1.123-0.599-1.417-1.121c-0.245-0.438-0.374-0.932-0.446-1.426c-0.076-0.533-0.083-1.084,0.044-1.609
			c0.111-0.468,0.343-0.899,0.604-1.299c0.319-0.485,0.68-0.959,1.061-1.397c1.224-1.407,2.819-2.455,4.513-3.213
			C369.021,168.98,372.031,168.472,375,168.472z"/>
	</g>
	<g id="POLYLINE_00000050644484520725713970000010215227814664502660_">
		
			<path fill="none" stroke="#3A54F5" stroke-width="2.5" stroke-linecap="round" stroke-linejoin="round" stroke-miterlimit="10" d="
			M390.643,183.036c-0.1,0.009-0.199-0.017-0.293-0.049c-0.313-0.114-0.595-0.304-0.868-0.492"/>
	</g>
	<g id="POLYLINE_00000018231663529609449350000014254569758424635577_">
		
			<path fill="none" stroke="#3A54F5" stroke-width="2.5" stroke-linecap="round" stroke-linejoin="round" stroke-miterlimit="10" d="
			M359.357,183.036c0.1,0.009,0.199-0.017,0.293-0.049c0.313-0.114,0.595-0.304,0.868-0.492"/>
	</g>
	<g id="POLYLINE_00000076570276234313153680000007490288519744458428_">
		
			<line fill="none" stroke="#3A54F5" stroke-width="2.5" stroke-linecap="round" stroke-linejoin="round" stroke-miterlimit="10" x1="359.722" y1="179.147" x2="359.137" y2="175.239"/>
	</g>
	<g id="POLYLINE_00000142859487647673443940000009861385875436586918_">
		
			<line fill="none" stroke="#3A54F5" stroke-width="2.5" stroke-linecap="round" stroke-linejoin="round" stroke-miterlimit="10" x1="357.323" y1="175.379" x2="357.989" y2="179.826"/>
	</g>
	<g id="POLYLINE_00000005263339423980642920000002981604139867157689_">
		
			<line fill="none" stroke="#3A54F5" stroke-width="2.5" stroke-linecap="round" stroke-linejoin="round" stroke-miterlimit="10" x1="390.278" y1="179.147" x2="390.863" y2="175.239"/>
	</g>
	<g id="POLYLINE_00000003804233431127645130000015875825680733005721_">
		
			<line fill="none" stroke="#3A54F5" stroke-width="2.5" stroke-linecap="round" stroke-linejoin="round" stroke-miterlimit="10" x1="392.677" y1="175.379" x2="392.011" y2="179.826"/>
	</g>
	<g id="POLYLINE_00000042734588390765521290000016886239220235259823_">
		
			<path fill="none" stroke="#3A54F5" stroke-width="2.5" stroke-linecap="round" stroke-linejoin="round" stroke-miterlimit="10" d="
			M375,300.17c-2.605,0.002-5.248,0.163-7.822,0.577c-1.871,0.308-3.751,0.737-5.519,1.432c-0.532,0.216-1.072,0.454-1.544,0.783
			c-0.207,0.148-0.407,0.317-0.549,0.531c-0.115,0.168-0.175,0.368-0.198,0.569c-0.039,0.274-0.024,0.555,0.037,0.824
			c0.061,0.233,0.087,0.5,0.244,0.692c0.1,0.123,0.253,0.185,0.408,0.198c0.242,0.021,0.487-0.021,0.725-0.064
			c2.691-0.645,5.502-1.296,8.25-1.638c2.704-0.342,5.492-0.428,8.215-0.314c4.113,0.149,8.053,1.003,12.033,1.964
			c0.217,0.037,0.442,0.072,0.663,0.052c0.159-0.013,0.319-0.079,0.417-0.209c0.158-0.209,0.186-0.491,0.247-0.738
			c0.055-0.265,0.061-0.541,0.02-0.809c-0.025-0.187-0.086-0.37-0.192-0.527c-0.153-0.229-0.371-0.408-0.596-0.563
			c-0.461-0.312-0.983-0.543-1.498-0.751c-1.768-0.694-3.648-1.124-5.519-1.432C380.248,300.333,377.605,300.172,375,300.17z"/>
	</g>
	<g id="POLYLINE_00000123399312058594663550000009637097825931413169_">
		
			<line fill="none" stroke="#3A54F5" stroke-width="2.5" stroke-linecap="round" stroke-linejoin="round" stroke-miterlimit="10" x1="389.448" y1="313.917" x2="389.448" y2="305.751"/>
	</g>
	<g id="POLYLINE_00000111171331719959483490000010915520920358793896_">
		
			<line fill="none" stroke="#3A54F5" stroke-width="2.5" stroke-linecap="round" stroke-linejoin="round" stroke-miterlimit="10" x1="388.019" y1="311.839" x2="388.019" y2="305.431"/>
	</g>
	<g id="POLYLINE_00000111882817928781235360000001051142359103929005_">
		
			<path fill="none" stroke="#3A54F5" stroke-width="2.5" stroke-linecap="round" stroke-linejoin="round" stroke-miterlimit="10" d="
			M375.003,307.927c2.601,0.005,5.243,0.25,7.745,0.989c1.547,0.463,3.058,1.125,4.346,2.108c0.859,0.658,1.616,1.472,2.129,2.429
			c0.462,0.854,0.716,1.822,0.722,2.794l0,16.669c0,0.031-0.001,0.065-0.004,0.096c-0.007,0.071-0.02,0.143-0.041,0.211
			c-0.049,0.165-0.139,0.318-0.259,0.441c-0.153,0.158-0.356,0.266-0.573,0.306c-0.06,0.011-0.122,0.017-0.183,0.018
			c-0.002,0.007-27.754-0.005-27.759,0c-0.286,0.001-0.569-0.118-0.768-0.324c-0.12-0.123-0.21-0.276-0.259-0.441
			c-0.02-0.069-0.034-0.14-0.041-0.211c-0.079-0.045,0.048-16.7-0.004-16.766c0.006-0.971,0.26-1.94,0.722-2.794
			c0.514-0.957,1.27-1.772,2.129-2.429c1.289-0.984,2.8-1.646,4.346-2.108C369.756,308.177,372.4,307.931,375.003,307.927z"/>
	</g>
	<g id="POLYLINE_00000045590920617054966360000001347913201398084528_">
		
			<line fill="none" stroke="#3A54F5" stroke-width="2.5" stroke-linecap="round" stroke-linejoin="round" stroke-miterlimit="10" x1="360.552" y1="313.917" x2="360.552" y2="305.751"/>
	</g>
	<g id="POLYLINE_00000101815312387644431500000017772272306783447937_">
		
			<line fill="none" stroke="#3A54F5" stroke-width="2.5" stroke-linecap="round" stroke-linejoin="round" stroke-miterlimit="10" x1="361.981" y1="311.839" x2="361.981" y2="305.431"/>
	</g>
	<g id="POLYLINE_00000018235568523038897250000005783142145856255933_">
		
			<path fill="none" stroke="#3A54F5" stroke-width="2.5" stroke-linecap="round" stroke-linejoin="round" stroke-miterlimit="10" d="
			M303.647,319.289c-2.255,1.305-4.463,2.766-6.485,4.411c-1.466,1.202-2.88,2.514-4.064,3.999
			c-0.353,0.453-0.702,0.929-0.946,1.451c-0.106,0.232-0.194,0.478-0.21,0.734c-0.015,0.203,0.032,0.406,0.113,0.591
			c0.103,0.257,0.257,0.492,0.444,0.695c0.169,0.171,0.325,0.389,0.557,0.477c0.148,0.057,0.312,0.033,0.453-0.033
			c0.22-0.103,0.412-0.262,0.596-0.418c2.008-1.904,4.117-3.874,6.325-5.544c2.17-1.648,4.542-3.117,6.957-4.379
			c3.636-1.928,7.476-3.158,11.403-4.316c0.207-0.076,0.419-0.158,0.6-0.286c0.131-0.091,0.236-0.228,0.257-0.39
			c0.032-0.26-0.084-0.518-0.155-0.763c-0.085-0.258-0.218-0.499-0.388-0.71c-0.115-0.149-0.259-0.278-0.43-0.36
			c-0.247-0.122-0.525-0.168-0.797-0.19c-0.555-0.04-1.123,0.021-1.673,0.099c-1.878,0.282-3.721,0.85-5.495,1.519
			C308.274,316.806,305.904,317.988,303.647,319.289z"/>
	</g>
	<g id="POLYLINE_00000152224467288566810160000016415990265211273909_">
		
			<line fill="none" stroke="#3A54F5" stroke-width="2.5" stroke-linecap="round" stroke-linejoin="round" stroke-miterlimit="10" x1="323.033" y1="323.97" x2="318.95" y2="316.898"/>
	</g>
	<g id="POLYLINE_00000044177785464798158750000003283260078955252103_">
		
			<line fill="none" stroke="#3A54F5" stroke-width="2.5" stroke-linecap="round" stroke-linejoin="round" stroke-miterlimit="10" x1="320.757" y1="322.885" x2="317.553" y2="317.336"/>
	</g>
	<g id="POLYLINE_00000122002399556344856560000001406925585729564088_">
		
			<path fill="none" stroke="#3A54F5" stroke-width="2.5" stroke-linecap="round" stroke-linejoin="round" stroke-miterlimit="10" d="
			M307.528,326.005c2.255-1.296,4.665-2.405,7.202-3.016c1.571-0.373,3.211-0.555,4.818-0.347c1.073,0.14,2.136,0.467,3.059,1.039
			c0.827,0.509,1.531,1.22,2.022,2.059l8.335,14.436c0.015,0.027,0.031,0.057,0.044,0.086c0.03,0.065,0.054,0.134,0.07,0.203
			c0.04,0.167,0.038,0.344-0.004,0.511c-0.054,0.213-0.175,0.409-0.343,0.551c-0.047,0.04-0.097,0.076-0.15,0.107
			c0.002,0.007-24.038,13.872-24.04,13.88c-0.247,0.144-0.552,0.182-0.827,0.103c-0.166-0.047-0.32-0.134-0.445-0.252
			c-0.052-0.049-0.1-0.104-0.141-0.162c-0.091,0.001-8.308-14.487-8.387-14.517c-0.481-0.844-0.745-1.81-0.772-2.78
			c-0.034-1.086,0.214-2.17,0.63-3.169c0.624-1.496,1.602-2.825,2.71-3.999C303.109,328.845,305.276,327.311,307.528,326.005z"/>
	</g>
	<g id="POLYLINE_00000075865325547522132850000016616571847589785009_">
		
			<line fill="none" stroke="#3A54F5" stroke-width="2.5" stroke-linecap="round" stroke-linejoin="round" stroke-miterlimit="10" x1="298.008" y1="338.418" x2="293.925" y2="331.347"/>
	</g>
	<g id="POLYLINE_00000175305913125740828710000003510349730141000602_">
		
			<line fill="none" stroke="#3A54F5" stroke-width="2.5" stroke-linecap="round" stroke-linejoin="round" stroke-miterlimit="10" x1="298.207" y1="335.904" x2="295.003" y2="330.355"/>
	</g>
	<g id="POLYLINE_00000106865212944698222610000005223457304805618058_">
		
			<path fill="none" stroke="#3A54F5" stroke-width="2.5" stroke-linecap="round" stroke-linejoin="round" stroke-miterlimit="10" d="
			M251.413,371.523c-1.301,2.257-2.483,4.627-3.411,7.063c-0.669,1.774-1.237,3.617-1.519,5.495
			c-0.079,0.568-0.143,1.155-0.094,1.729c0.024,0.254,0.072,0.511,0.185,0.741c0.088,0.184,0.231,0.335,0.393,0.456
			c0.218,0.17,0.468,0.298,0.732,0.38c0.232,0.064,0.476,0.175,0.721,0.135c0.156-0.025,0.287-0.127,0.376-0.254
			c0.139-0.199,0.225-0.433,0.307-0.66c0.787-2.653,1.628-5.413,2.706-7.964c1.056-2.512,2.375-4.971,3.835-7.271
			c2.185-3.488,4.895-6.473,7.717-9.439c0.141-0.169,0.284-0.347,0.377-0.548c0.068-0.144,0.09-0.316,0.028-0.466
			c-0.102-0.241-0.332-0.407-0.516-0.583c-0.202-0.181-0.438-0.324-0.691-0.422c-0.174-0.072-0.363-0.111-0.552-0.097
			c-0.275,0.018-0.539,0.117-0.785,0.234c-0.501,0.243-0.962,0.58-1.399,0.922c-1.485,1.184-2.798,2.597-3.999,4.064
			C254.179,367.059,252.718,369.268,251.413,371.523z"/>
	</g>
	<g id="POLYLINE_00000027569364132990861580000005254516495696916413_">
		
			<line fill="none" stroke="#3A54F5" stroke-width="2.5" stroke-linecap="round" stroke-linejoin="round" stroke-miterlimit="10" x1="270.542" y1="365.884" x2="263.471" y2="361.801"/>
	</g>
	<g id="POLYLINE_00000036971627862874199320000011947189938935246219_">
		
			<line fill="none" stroke="#3A54F5" stroke-width="2.5" stroke-linecap="round" stroke-linejoin="round" stroke-miterlimit="10" x1="268.029" y1="366.082" x2="262.479" y2="362.878"/>
	</g>
	<g id="POLYLINE_00000135680984936907039480000003037879261980188348_">
		
			<path fill="none" stroke="#3A54F5" stroke-width="2.5" stroke-linecap="round" stroke-linejoin="round" stroke-miterlimit="10" d="
			M258.133,375.399c1.305-2.25,2.838-4.415,4.729-6.212c1.174-1.108,2.503-2.086,3.999-2.71c0.999-0.415,2.083-0.663,3.169-0.63
			c0.971,0.027,1.936,0.291,2.78,0.772l14.436,8.335c0.027,0.016,0.056,0.034,0.081,0.052c0.058,0.041,0.113,0.089,0.162,0.141
			c0.118,0.125,0.206,0.279,0.252,0.445c0.06,0.212,0.053,0.442-0.021,0.649c-0.021,0.058-0.046,0.114-0.076,0.168
			c0.005,0.005-13.881,24.033-13.879,24.04c-0.142,0.248-0.387,0.434-0.664,0.503c-0.167,0.042-0.344,0.044-0.511,0.004
			c-0.07-0.017-0.138-0.04-0.203-0.07c-0.079,0.046-14.439-8.392-14.522-8.379c-0.838-0.491-1.55-1.195-2.059-2.022
			c-0.572-0.923-0.899-1.986-1.039-3.059c-0.208-1.608-0.025-3.248,0.347-4.818C255.726,380.067,256.835,377.655,258.133,375.399z"
			/>
	</g>
	<g id="POLYLINE_00000077325164383749504510000017225255566889138050_">
		
			<line fill="none" stroke="#3A54F5" stroke-width="2.5" stroke-linecap="round" stroke-linejoin="round" stroke-miterlimit="10" x1="256.094" y1="390.909" x2="249.023" y2="386.826"/>
	</g>
	<g id="POLYLINE_00000180334020089696407250000003781435664553884804_">
		
			<line fill="none" stroke="#3A54F5" stroke-width="2.5" stroke-linecap="round" stroke-linejoin="round" stroke-miterlimit="10" x1="255.009" y1="388.632" x2="249.46" y2="385.428"/>
	</g>
	<g id="POLYLINE_00000092422275528144107460000014749701099244245923_">
		
			<path fill="none" stroke="#3A54F5" stroke-width="2.5" stroke-linecap="round" stroke-linejoin="round" stroke-miterlimit="10" d="
			M232.294,442.876c0.002,2.605,0.163,5.248,0.577,7.822c0.308,1.871,0.737,3.751,1.432,5.519c0.216,0.532,0.454,1.072,0.783,1.544
			c0.148,0.207,0.317,0.407,0.531,0.549c0.168,0.115,0.368,0.175,0.569,0.198c0.274,0.039,0.555,0.024,0.824-0.037
			c0.233-0.061,0.5-0.087,0.692-0.244c0.123-0.1,0.185-0.253,0.198-0.408c0.021-0.242-0.021-0.487-0.064-0.725
			c-0.645-2.691-1.296-5.502-1.638-8.25c-0.342-2.704-0.428-5.492-0.314-8.215c0.149-4.113,1.003-8.053,1.964-12.033
			c0.037-0.217,0.072-0.442,0.053-0.663c-0.013-0.159-0.079-0.319-0.209-0.417c-0.209-0.158-0.491-0.186-0.738-0.247
			c-0.265-0.055-0.541-0.061-0.809-0.02c-0.187,0.025-0.37,0.086-0.527,0.192c-0.229,0.153-0.408,0.371-0.563,0.596
			c-0.312,0.461-0.543,0.983-0.751,1.498c-0.694,1.768-1.124,3.648-1.432,5.519C232.458,437.627,232.296,440.27,232.294,442.876z"/>
	</g>
	<g id="POLYLINE_00000160887975217386683630000017030777235257538706_">
		
			<line fill="none" stroke="#3A54F5" stroke-width="2.5" stroke-linecap="round" stroke-linejoin="round" stroke-miterlimit="10" x1="246.041" y1="428.427" x2="237.876" y2="428.427"/>
	</g>
	<g id="POLYLINE_00000161621936464746576500000002177576999132693433_">
		
			<line fill="none" stroke="#3A54F5" stroke-width="2.5" stroke-linecap="round" stroke-linejoin="round" stroke-miterlimit="10" x1="243.963" y1="429.856" x2="237.556" y2="429.856"/>
	</g>
	<g id="POLYLINE_00000159436583382194130410000002161163249347704469_">
		
			<path fill="none" stroke="#3A54F5" stroke-width="2.5" stroke-linecap="round" stroke-linejoin="round" stroke-miterlimit="10" d="
			M240.052,442.873c0.005-2.601,0.25-5.243,0.989-7.745c0.463-1.547,1.125-3.058,2.108-4.346c0.658-0.859,1.472-1.616,2.429-2.129
			c0.854-0.462,1.822-0.716,2.794-0.722c0,0,16.669,0,16.669,0c0.031,0,0.065,0.001,0.096,0.004c0.071,0.007,0.143,0.02,0.211,0.041
			c0.165,0.049,0.318,0.139,0.441,0.259c0.158,0.153,0.266,0.356,0.306,0.573c0.011,0.06,0.017,0.122,0.018,0.183
			c0.007,0.002-0.005,27.754,0,27.759c0.001,0.286-0.118,0.569-0.324,0.768c-0.123,0.12-0.276,0.21-0.441,0.259
			c-0.069,0.02-0.14,0.034-0.211,0.041c-0.045,0.079-16.7-0.048-16.766,0.004c-0.971-0.006-1.94-0.26-2.794-0.722
			c-0.957-0.514-1.772-1.27-2.429-2.129c-0.984-1.289-1.646-2.8-2.108-4.346C240.301,448.119,240.056,445.476,240.052,442.873z"/>
	</g>
	<g id="POLYLINE_00000054957857071831731410000009554694559828022415_">
		
			<line fill="none" stroke="#3A54F5" stroke-width="2.5" stroke-linecap="round" stroke-linejoin="round" stroke-miterlimit="10" x1="246.041" y1="457.324" x2="237.876" y2="457.324"/>
	</g>
	<g id="POLYLINE_00000083804639678780753780000014033345178384649635_">
		
			<line fill="none" stroke="#3A54F5" stroke-width="2.5" stroke-linecap="round" stroke-linejoin="round" stroke-miterlimit="10" x1="243.963" y1="455.895" x2="237.556" y2="455.895"/>
	</g>
	<g id="POLYLINE_00000166647114760151563330000004959970400234652572_">
		
			<path fill="none" stroke="#3A54F5" stroke-width="2.5" stroke-linecap="round" stroke-linejoin="round" stroke-miterlimit="10" d="
			M251.413,514.228c1.305,2.255,2.766,4.464,4.411,6.485c1.202,1.466,2.514,2.88,3.999,4.064c0.453,0.353,0.929,0.702,1.451,0.946
			c0.232,0.106,0.478,0.194,0.734,0.21c0.203,0.015,0.406-0.032,0.591-0.113c0.257-0.103,0.492-0.257,0.695-0.444
			c0.171-0.169,0.389-0.325,0.477-0.557c0.057-0.148,0.033-0.312-0.033-0.453c-0.103-0.22-0.262-0.412-0.418-0.596
			c-1.904-2.008-3.874-4.117-5.544-6.325c-1.648-2.17-3.117-4.542-4.379-6.957c-1.928-3.636-3.158-7.476-4.316-11.403
			c-0.076-0.207-0.158-0.419-0.286-0.6c-0.091-0.131-0.228-0.236-0.39-0.257c-0.26-0.032-0.518,0.084-0.763,0.155
			c-0.258,0.085-0.499,0.218-0.71,0.388c-0.149,0.115-0.278,0.259-0.36,0.43c-0.122,0.247-0.168,0.525-0.19,0.797
			c-0.04,0.555,0.021,1.123,0.099,1.673c0.282,1.878,0.85,3.721,1.519,5.495C248.931,509.602,250.112,511.971,251.413,514.228z"/>
	</g>
	<g id="POLYLINE_00000011732572473828550960000006205397941678575543_">
		
			<line fill="none" stroke="#3A54F5" stroke-width="2.5" stroke-linecap="round" stroke-linejoin="round" stroke-miterlimit="10" x1="256.094" y1="494.843" x2="249.023" y2="498.925"/>
	</g>
	<g id="POLYLINE_00000132770924166814330400000004786446315166389415_">
		
			<line fill="none" stroke="#3A54F5" stroke-width="2.5" stroke-linecap="round" stroke-linejoin="round" stroke-miterlimit="10" x1="255.009" y1="497.119" x2="249.46" y2="500.323"/>
	</g>
	<g id="POLYLINE_00000172430253430595808650000012086762065604377508_">
		
			<path fill="none" stroke="#3A54F5" stroke-width="2.5" stroke-linecap="round" stroke-linejoin="round" stroke-miterlimit="10" d="
			M258.13,510.347c-1.296-2.255-2.405-4.665-3.016-7.202c-0.373-1.571-0.555-3.211-0.347-4.818c0.14-1.073,0.467-2.136,1.039-3.059
			c0.509-0.827,1.22-1.531,2.059-2.022c0,0,14.436-8.335,14.436-8.335c0.027-0.015,0.057-0.031,0.086-0.044
			c0.065-0.03,0.134-0.054,0.203-0.07c0.167-0.04,0.344-0.038,0.511,0.004c0.213,0.054,0.409,0.175,0.551,0.343
			c0.04,0.047,0.076,0.097,0.107,0.15c0.007-0.002,13.872,24.038,13.88,24.04c0.144,0.247,0.182,0.552,0.103,0.827
			c-0.047,0.166-0.134,0.32-0.252,0.445c-0.049,0.052-0.104,0.1-0.162,0.141c0.001,0.091-14.487,8.308-14.517,8.387
			c-0.844,0.48-1.81,0.745-2.78,0.772c-1.086,0.034-2.17-0.214-3.169-0.63c-1.496-0.624-2.825-1.602-3.999-2.71
			C260.969,514.766,259.435,512.599,258.13,510.347z"/>
	</g>
	<g id="POLYLINE_00000127014080583714942000000015032409331951690400_">
		
			<line fill="none" stroke="#3A54F5" stroke-width="2.5" stroke-linecap="round" stroke-linejoin="round" stroke-miterlimit="10" x1="270.542" y1="519.868" x2="263.471" y2="523.95"/>
	</g>
	<g id="POLYLINE_00000171716787203511185180000003268995714271880355_">
		
			<line fill="none" stroke="#3A54F5" stroke-width="2.5" stroke-linecap="round" stroke-linejoin="round" stroke-miterlimit="10" x1="268.029" y1="519.669" x2="262.479" y2="522.873"/>
	</g>
	<g id="POLYLINE_00000137817946641409347140000001610243626122031780_">
		
			<path fill="none" stroke="#3A54F5" stroke-width="2.5" stroke-linecap="round" stroke-linejoin="round" stroke-miterlimit="10" d="
			M303.647,566.462c2.257,1.301,4.627,2.483,7.063,3.411c1.774,0.669,3.617,1.237,5.495,1.519c0.568,0.079,1.155,0.143,1.729,0.094
			c0.253-0.024,0.511-0.072,0.741-0.185c0.184-0.088,0.335-0.231,0.456-0.393c0.17-0.218,0.298-0.468,0.38-0.732
			c0.064-0.232,0.175-0.476,0.135-0.721c-0.025-0.156-0.127-0.287-0.254-0.376c-0.199-0.139-0.433-0.226-0.66-0.307
			c-2.653-0.787-5.413-1.628-7.964-2.706c-2.512-1.056-4.971-2.375-7.271-3.835c-3.488-2.185-6.473-4.895-9.439-7.717
			c-0.169-0.141-0.347-0.284-0.548-0.377c-0.144-0.068-0.316-0.09-0.466-0.028c-0.241,0.102-0.407,0.332-0.583,0.516
			c-0.181,0.202-0.324,0.438-0.422,0.691c-0.072,0.174-0.111,0.364-0.097,0.552c0.018,0.275,0.117,0.539,0.234,0.786
			c0.243,0.501,0.58,0.962,0.922,1.399c1.184,1.485,2.597,2.798,4.064,4C299.184,563.697,301.392,565.158,303.647,566.462z"/>
	</g>
	<g id="POLYLINE_00000170259853128854442790000000554519778302574767_">
		
			<line fill="none" stroke="#3A54F5" stroke-width="2.5" stroke-linecap="round" stroke-linejoin="round" stroke-miterlimit="10" x1="298.008" y1="547.333" x2="293.925" y2="554.405"/>
	</g>
	<g id="POLYLINE_00000163772237185403762380000010910503992246977158_">
		
			<line fill="none" stroke="#3A54F5" stroke-width="2.5" stroke-linecap="round" stroke-linejoin="round" stroke-miterlimit="10" x1="298.207" y1="549.847" x2="295.003" y2="555.396"/>
	</g>
	<g id="POLYLINE_00000125585440317869478990000001262711305242824885_">
		
			<path fill="none" stroke="#3A54F5" stroke-width="2.5" stroke-linecap="round" stroke-linejoin="round" stroke-miterlimit="10" d="
			M307.523,559.743c-2.25-1.305-4.415-2.838-6.212-4.729c-1.108-1.174-2.086-2.503-2.71-3.999c-0.415-0.999-0.663-2.083-0.63-3.169
			c0.027-0.971,0.291-1.936,0.772-2.78c0,0,8.335-14.436,8.335-14.436c0.016-0.027,0.034-0.056,0.052-0.081
			c0.041-0.058,0.089-0.113,0.141-0.162c0.125-0.118,0.279-0.206,0.445-0.252c0.212-0.06,0.442-0.052,0.649,0.021
			c0.058,0.021,0.114,0.046,0.168,0.076c0.005-0.005,24.033,13.881,24.04,13.879c0.248,0.142,0.434,0.387,0.503,0.664
			c0.042,0.167,0.044,0.344,0.004,0.511c-0.017,0.07-0.04,0.138-0.07,0.203c0.046,0.079-8.392,14.439-8.379,14.522
			c-0.491,0.838-1.195,1.55-2.022,2.059c-0.923,0.572-1.986,0.899-3.059,1.039c-1.608,0.208-3.248,0.025-4.818-0.347
			C312.192,562.15,309.78,561.041,307.523,559.743z"/>
	</g>
	<g id="POLYLINE_00000129200678631737135080000009108286088475926424_">
		
			<line fill="none" stroke="#3A54F5" stroke-width="2.5" stroke-linecap="round" stroke-linejoin="round" stroke-miterlimit="10" x1="323.033" y1="561.781" x2="318.95" y2="568.853"/>
	</g>
	<g id="POLYLINE_00000013913334840897068790000012632075826612214459_">
		
			<line fill="none" stroke="#3A54F5" stroke-width="2.5" stroke-linecap="round" stroke-linejoin="round" stroke-miterlimit="10" x1="320.757" y1="562.866" x2="317.553" y2="568.416"/>
	</g>
	<g id="POLYLINE_00000068673846909861802910000004822971729765140135_">
		
			<path fill="none" stroke="#3A54F5" stroke-width="2.5" stroke-linecap="round" stroke-linejoin="round" stroke-miterlimit="10" d="
			M375,585.581c2.605-0.002,5.248-0.163,7.822-0.577c1.871-0.308,3.751-0.737,5.519-1.432c0.532-0.216,1.072-0.454,1.544-0.783
			c0.207-0.148,0.407-0.318,0.549-0.531c0.115-0.168,0.175-0.368,0.198-0.569c0.039-0.274,0.024-0.555-0.037-0.824
			c-0.061-0.233-0.087-0.5-0.244-0.692c-0.1-0.123-0.253-0.185-0.408-0.198c-0.242-0.021-0.487,0.021-0.725,0.064
			c-2.691,0.645-5.502,1.297-8.25,1.638c-2.704,0.342-5.492,0.428-8.215,0.314c-4.113-0.148-8.053-1.003-12.033-1.964
			c-0.217-0.037-0.442-0.072-0.663-0.052c-0.159,0.013-0.319,0.079-0.417,0.209c-0.158,0.209-0.186,0.491-0.247,0.738
			c-0.055,0.265-0.061,0.541-0.02,0.809c0.025,0.187,0.086,0.37,0.192,0.527c0.153,0.229,0.371,0.408,0.596,0.563
			c0.461,0.312,0.983,0.543,1.498,0.751c1.768,0.694,3.648,1.124,5.519,1.432C369.752,585.418,372.395,585.579,375,585.581z"/>
	</g>
	<g id="POLYLINE_00000178916220840881278230000006131855070172850322_">
		
			<line fill="none" stroke="#3A54F5" stroke-width="2.5" stroke-linecap="round" stroke-linejoin="round" stroke-miterlimit="10" x1="360.552" y1="571.835" x2="360.552" y2="580"/>
	</g>
	<g id="POLYLINE_00000000936130643415105650000003117403163711531440_">
		
			<line fill="none" stroke="#3A54F5" stroke-width="2.5" stroke-linecap="round" stroke-linejoin="round" stroke-miterlimit="10" x1="361.981" y1="573.912" x2="361.981" y2="580.32"/>
	</g>
	<g id="POLYLINE_00000123431316437027912250000015902317162618489736_">
		
			<path fill="none" stroke="#3A54F5" stroke-width="2.5" stroke-linecap="round" stroke-linejoin="round" stroke-miterlimit="10" d="
			M374.997,577.824c-2.601-0.005-5.243-0.25-7.745-0.989c-1.547-0.463-3.058-1.125-4.346-2.108
			c-0.859-0.658-1.616-1.472-2.129-2.429c-0.462-0.854-0.716-1.822-0.722-2.794l0-16.669c0-0.031,0.001-0.065,0.004-0.096
			c0.007-0.071,0.02-0.143,0.041-0.211c0.049-0.165,0.139-0.318,0.259-0.441c0.153-0.158,0.356-0.266,0.573-0.306
			c0.06-0.011,0.122-0.017,0.183-0.018c0.002-0.007,27.754,0.005,27.759,0c0.286-0.001,0.569,0.118,0.768,0.324
			c0.12,0.123,0.21,0.276,0.259,0.441c0.02,0.069,0.034,0.14,0.041,0.211c0.079,0.045-0.048,16.7,0.004,16.766
			c-0.006,0.971-0.26,1.94-0.722,2.794c-0.514,0.957-1.27,1.772-2.129,2.429c-1.289,0.984-2.8,1.646-4.346,2.108
			C380.244,577.574,377.6,577.82,374.997,577.824z"/>
	</g>
	<g id="POLYLINE_00000002350444913070106660000007967579162386903960_">
		
			<line fill="none" stroke="#3A54F5" stroke-width="2.5" stroke-linecap="round" stroke-linejoin="round" stroke-miterlimit="10" x1="389.448" y1="571.835" x2="389.448" y2="580"/>
	</g>
	<g id="POLYLINE_00000083070714864561919690000017376379961011810746_">
		
			<line fill="none" stroke="#3A54F5" stroke-width="2.5" stroke-linecap="round" stroke-linejoin="round" stroke-miterlimit="10" x1="388.019" y1="573.912" x2="388.019" y2="580.32"/>
	</g>
	<g id="POLYLINE_00000019665179355183913980000005476078231836137900_">
		
			<path fill="none" stroke="#3A54F5" stroke-width="2.5" stroke-linecap="round" stroke-linejoin="round" stroke-miterlimit="10" d="
			M446.353,566.462c2.255-1.305,4.463-2.766,6.485-4.411c1.466-1.202,2.88-2.514,4.064-3.999c0.353-0.453,0.702-0.929,0.946-1.451
			c0.106-0.232,0.194-0.478,0.21-0.734c0.015-0.203-0.032-0.406-0.113-0.591c-0.103-0.257-0.257-0.492-0.444-0.695
			c-0.169-0.171-0.325-0.389-0.557-0.477c-0.148-0.057-0.312-0.034-0.453,0.033c-0.22,0.103-0.412,0.262-0.596,0.418
			c-2.008,1.904-4.117,3.874-6.325,5.544c-2.17,1.648-4.542,3.117-6.957,4.379c-3.636,1.928-7.476,3.158-11.403,4.316
			c-0.207,0.076-0.419,0.158-0.6,0.286c-0.131,0.091-0.236,0.228-0.257,0.39c-0.032,0.26,0.084,0.518,0.155,0.763
			c0.085,0.258,0.218,0.499,0.388,0.71c0.115,0.149,0.259,0.278,0.43,0.36c0.247,0.122,0.525,0.168,0.797,0.19
			c0.555,0.04,1.123-0.021,1.673-0.099c1.878-0.282,3.721-0.85,5.495-1.519C441.726,568.945,444.096,567.763,446.353,566.462z"/>
	</g>
	<g id="POLYLINE_00000095325060194143805150000014291904136249657004_">
		
			<line fill="none" stroke="#3A54F5" stroke-width="2.5" stroke-linecap="round" stroke-linejoin="round" stroke-miterlimit="10" x1="426.967" y1="561.781" x2="431.05" y2="568.853"/>
	</g>
	<g id="POLYLINE_00000075862215017973702380000016917121498241288587_">
		
			<line fill="none" stroke="#3A54F5" stroke-width="2.5" stroke-linecap="round" stroke-linejoin="round" stroke-miterlimit="10" x1="429.243" y1="562.866" x2="432.447" y2="568.416"/>
	</g>
	<g id="POLYLINE_00000142149507909106542890000005208581844716892087_">
		
			<path fill="none" stroke="#3A54F5" stroke-width="2.5" stroke-linecap="round" stroke-linejoin="round" stroke-miterlimit="10" d="
			M442.472,559.746c-2.255,1.296-4.665,2.405-7.202,3.016c-1.571,0.373-3.211,0.555-4.818,0.347
			c-1.073-0.14-2.136-0.467-3.059-1.039c-0.827-0.509-1.531-1.22-2.022-2.059c0,0-8.335-14.436-8.335-14.436
			c-0.015-0.027-0.031-0.057-0.044-0.086c-0.03-0.065-0.054-0.134-0.07-0.203c-0.04-0.167-0.038-0.344,0.004-0.511
			c0.054-0.213,0.175-0.409,0.343-0.551c0.047-0.04,0.097-0.076,0.15-0.107c-0.002-0.007,24.038-13.872,24.04-13.88
			c0.247-0.144,0.552-0.182,0.827-0.103c0.166,0.047,0.32,0.134,0.445,0.252c0.052,0.049,0.1,0.104,0.141,0.162
			c0.091-0.001,8.308,14.487,8.387,14.517c0.481,0.844,0.745,1.81,0.772,2.78c0.034,1.086-0.214,2.17-0.63,3.169
			c-0.624,1.496-1.602,2.825-2.71,3.999C446.891,556.906,444.724,558.441,442.472,559.746z"/>
	</g>
	<g id="POLYLINE_00000002379190921885854870000002961040155386919822_">
		
			<line fill="none" stroke="#3A54F5" stroke-width="2.5" stroke-linecap="round" stroke-linejoin="round" stroke-miterlimit="10" x1="451.992" y1="547.333" x2="456.075" y2="554.405"/>
	</g>
	<g id="POLYLINE_00000030484644940064841810000005574106446992401573_">
		
			<line fill="none" stroke="#3A54F5" stroke-width="2.5" stroke-linecap="round" stroke-linejoin="round" stroke-miterlimit="10" x1="451.793" y1="549.847" x2="454.997" y2="555.396"/>
	</g>
	<g id="POLYLINE_00000150080738191872975540000016827602717835748487_">
		
			<path fill="none" stroke="#3A54F5" stroke-width="2.5" stroke-linecap="round" stroke-linejoin="round" stroke-miterlimit="10" d="
			M498.587,514.228c1.301-2.257,2.483-4.627,3.411-7.063c0.669-1.774,1.237-3.617,1.519-5.495c0.079-0.568,0.143-1.155,0.094-1.729
			c-0.024-0.253-0.072-0.511-0.185-0.741c-0.088-0.184-0.231-0.335-0.393-0.456c-0.218-0.17-0.468-0.298-0.732-0.38
			c-0.232-0.064-0.476-0.175-0.721-0.135c-0.156,0.025-0.287,0.127-0.376,0.254c-0.139,0.199-0.225,0.433-0.307,0.66
			c-0.787,2.653-1.628,5.413-2.706,7.964c-1.056,2.512-2.375,4.971-3.835,7.271c-2.185,3.488-4.895,6.473-7.717,9.439
			c-0.141,0.169-0.284,0.347-0.377,0.548c-0.068,0.144-0.09,0.316-0.028,0.466c0.102,0.241,0.332,0.407,0.516,0.583
			c0.202,0.181,0.438,0.324,0.691,0.422c0.174,0.072,0.363,0.111,0.552,0.097c0.275-0.018,0.539-0.117,0.785-0.234
			c0.501-0.243,0.962-0.58,1.399-0.922c1.485-1.184,2.798-2.597,3.999-4.064C495.821,518.692,497.282,516.484,498.587,514.228z"/>
	</g>
	<g id="POLYLINE_00000183232186526073238680000011216853931551450497_">
		
			<line fill="none" stroke="#3A54F5" stroke-width="2.5" stroke-linecap="round" stroke-linejoin="round" stroke-miterlimit="10" x1="479.458" y1="519.868" x2="486.529" y2="523.95"/>
	</g>
	<g id="POLYLINE_00000157293799968362847640000008035308926486522046_">
		
			<line fill="none" stroke="#3A54F5" stroke-width="2.5" stroke-linecap="round" stroke-linejoin="round" stroke-miterlimit="10" x1="481.971" y1="519.669" x2="487.521" y2="522.873"/>
	</g>
	<g id="POLYLINE_00000132799432694656005620000011078909812500927929_">
		
			<path fill="none" stroke="#3A54F5" stroke-width="2.5" stroke-linecap="round" stroke-linejoin="round" stroke-miterlimit="10" d="
			M491.867,510.352c-1.305,2.25-2.838,4.415-4.729,6.212c-1.174,1.108-2.503,2.086-3.999,2.71c-0.999,0.415-2.083,0.663-3.169,0.63
			c-0.971-0.027-1.936-0.291-2.78-0.772c0,0-14.436-8.335-14.436-8.335c-0.027-0.016-0.056-0.034-0.081-0.052
			c-0.058-0.041-0.113-0.089-0.162-0.141c-0.118-0.125-0.206-0.279-0.252-0.445c-0.06-0.212-0.053-0.442,0.021-0.649
			c0.021-0.058,0.046-0.114,0.076-0.168c-0.005-0.005,13.881-24.033,13.879-24.04c0.142-0.248,0.387-0.434,0.664-0.503
			c0.167-0.042,0.344-0.044,0.511-0.004c0.07,0.017,0.138,0.04,0.203,0.07c0.079-0.046,14.439,8.392,14.522,8.379
			c0.838,0.491,1.55,1.195,2.059,2.022c0.572,0.923,0.899,1.986,1.039,3.059c0.208,1.608,0.025,3.248-0.347,4.818
			C494.274,505.684,493.165,508.096,491.867,510.352z"/>
	</g>
	<g id="POLYLINE_00000126286717270852435400000014577998590103876232_">
		
			<line fill="none" stroke="#3A54F5" stroke-width="2.5" stroke-linecap="round" stroke-linejoin="round" stroke-miterlimit="10" x1="493.906" y1="494.843" x2="500.977" y2="498.925"/>
	</g>
	<g id="POLYLINE_00000106864588656640930010000018070052690106008740_">
		
			<line fill="none" stroke="#3A54F5" stroke-width="2.5" stroke-linecap="round" stroke-linejoin="round" stroke-miterlimit="10" x1="494.991" y1="497.119" x2="500.54" y2="500.323"/>
	</g>
	<g id="POLYLINE_00000085932847435538867940000002946654513126112191_">
		
			<path fill="none" stroke="#3A54F5" stroke-width="2.5" stroke-linecap="round" stroke-linejoin="round" stroke-miterlimit="10" d="
			M517.706,442.876c-0.002-2.605-0.163-5.248-0.577-7.822c-0.308-1.871-0.737-3.751-1.432-5.519
			c-0.216-0.532-0.454-1.072-0.783-1.544c-0.148-0.207-0.317-0.407-0.531-0.549c-0.168-0.115-0.368-0.175-0.569-0.198
			c-0.274-0.039-0.555-0.024-0.824,0.037c-0.233,0.061-0.5,0.087-0.692,0.244c-0.123,0.1-0.185,0.253-0.198,0.408
			c-0.021,0.242,0.021,0.487,0.064,0.725c0.645,2.691,1.297,5.502,1.638,8.25c0.342,2.704,0.428,5.492,0.314,8.215
			c-0.148,4.113-1.003,8.053-1.964,12.033c-0.037,0.217-0.072,0.442-0.052,0.663c0.013,0.159,0.079,0.319,0.209,0.417
			c0.209,0.158,0.491,0.186,0.738,0.247c0.265,0.055,0.541,0.061,0.809,0.02c0.187-0.025,0.37-0.086,0.527-0.192
			c0.229-0.153,0.408-0.371,0.563-0.596c0.312-0.461,0.543-0.983,0.751-1.498c0.694-1.768,1.124-3.648,1.432-5.519
			C517.542,448.124,517.704,445.481,517.706,442.876z"/>
	</g>
	<g id="POLYLINE_00000038390354951814108080000000762316456692233891_">
		
			<line fill="none" stroke="#3A54F5" stroke-width="2.5" stroke-linecap="round" stroke-linejoin="round" stroke-miterlimit="10" x1="503.959" y1="457.324" x2="512.124" y2="457.324"/>
	</g>
	<g id="POLYLINE_00000005966059083377472170000008614177617797435273_">
		
			<line fill="none" stroke="#3A54F5" stroke-width="2.5" stroke-linecap="round" stroke-linejoin="round" stroke-miterlimit="10" x1="506.037" y1="455.895" x2="512.444" y2="455.895"/>
	</g>
	<g id="POLYLINE_00000019650440515761987830000015508578289344759171_">
		
			<path fill="none" stroke="#3A54F5" stroke-width="2.5" stroke-linecap="round" stroke-linejoin="round" stroke-miterlimit="10" d="
			M509.948,442.878c-0.005,2.601-0.25,5.243-0.989,7.745c-0.463,1.547-1.125,3.058-2.108,4.346
			c-0.658,0.859-1.472,1.616-2.429,2.129c-0.854,0.462-1.822,0.716-2.794,0.722l-16.669,0c-0.031,0-0.065-0.001-0.096-0.004
			c-0.071-0.007-0.143-0.02-0.211-0.041c-0.165-0.049-0.318-0.139-0.441-0.259c-0.158-0.153-0.266-0.356-0.306-0.573
			c-0.011-0.06-0.017-0.122-0.018-0.183c-0.007-0.002,0.005-27.754,0-27.759c-0.001-0.286,0.118-0.569,0.324-0.768
			c0.123-0.12,0.276-0.21,0.441-0.259c0.069-0.02,0.14-0.034,0.211-0.041c0.045-0.079,16.7,0.048,16.766-0.004
			c0.971,0.006,1.94,0.26,2.794,0.722c0.957,0.514,1.772,1.27,2.429,2.13c0.984,1.289,1.646,2.8,2.108,4.346
			C509.699,437.632,509.944,440.275,509.948,442.878z"/>
	</g>
	<g id="POLYLINE_00000171720861745826031920000001631943458113006481_">
		
			<line fill="none" stroke="#3A54F5" stroke-width="2.5" stroke-linecap="round" stroke-linejoin="round" stroke-miterlimit="10" x1="503.959" y1="428.427" x2="512.124" y2="428.427"/>
	</g>
	<g id="POLYLINE_00000137822275011181380830000002774315909069603506_">
		
			<line fill="none" stroke="#3A54F5" stroke-width="2.5" stroke-linecap="round" stroke-linejoin="round" stroke-miterlimit="10" x1="506.037" y1="429.856" x2="512.444" y2="429.856"/>
	</g>
	<g id="POLYLINE_00000087401930866537797460000011202621356856336019_">
		
			<path fill="none" stroke="#3A54F5" stroke-width="2.5" stroke-linecap="round" stroke-linejoin="round" stroke-miterlimit="10" d="
			M498.587,371.523c-1.305-2.255-2.766-4.463-4.411-6.485c-1.202-1.466-2.514-2.88-3.999-4.064
			c-0.453-0.353-0.929-0.702-1.451-0.946c-0.232-0.106-0.478-0.194-0.734-0.21c-0.203-0.015-0.406,0.032-0.591,0.113
			c-0.257,0.103-0.492,0.257-0.695,0.444c-0.171,0.169-0.389,0.325-0.477,0.557c-0.057,0.148-0.033,0.312,0.033,0.453
			c0.103,0.22,0.262,0.412,0.418,0.596c1.904,2.008,3.874,4.117,5.544,6.325c1.648,2.17,3.117,4.542,4.379,6.957
			c1.928,3.636,3.158,7.476,4.316,11.403c0.076,0.207,0.158,0.419,0.286,0.6c0.091,0.131,0.228,0.236,0.39,0.257
			c0.26,0.032,0.518-0.084,0.763-0.155c0.258-0.085,0.499-0.218,0.71-0.388c0.149-0.115,0.278-0.259,0.36-0.43
			c0.122-0.247,0.168-0.525,0.19-0.797c0.04-0.555-0.021-1.123-0.099-1.673c-0.282-1.878-0.85-3.721-1.519-5.495
			C501.069,376.15,499.888,373.78,498.587,371.523z"/>
	</g>
	<g id="POLYLINE_00000037693568514956920010000004883175387741502113_">
		
			<line fill="none" stroke="#3A54F5" stroke-width="2.5" stroke-linecap="round" stroke-linejoin="round" stroke-miterlimit="10" x1="493.906" y1="390.909" x2="500.977" y2="386.826"/>
	</g>
	<g id="POLYLINE_00000147181850629457122550000012839723367730977703_">
		
			<line fill="none" stroke="#3A54F5" stroke-width="2.5" stroke-linecap="round" stroke-linejoin="round" stroke-miterlimit="10" x1="494.991" y1="388.632" x2="500.54" y2="385.428"/>
	</g>
	<g id="POLYLINE_00000145060481106702234920000003055873520396397217_">
		
			<path fill="none" stroke="#3A54F5" stroke-width="2.5" stroke-linecap="round" stroke-linejoin="round" stroke-miterlimit="10" d="
			M491.87,375.404c1.296,2.255,2.405,4.665,3.016,7.202c0.373,1.571,0.555,3.211,0.347,4.818c-0.14,1.073-0.467,2.136-1.039,3.059
			c-0.509,0.827-1.22,1.531-2.059,2.022c0,0-14.436,8.335-14.436,8.335c-0.027,0.015-0.057,0.031-0.086,0.044
			c-0.065,0.03-0.134,0.054-0.203,0.07c-0.167,0.04-0.344,0.038-0.511-0.004c-0.213-0.054-0.409-0.175-0.551-0.343
			c-0.04-0.047-0.076-0.097-0.107-0.15c-0.007,0.002-13.872-24.038-13.88-24.04c-0.144-0.247-0.182-0.552-0.103-0.827
			c0.047-0.166,0.134-0.32,0.252-0.445c0.049-0.052,0.104-0.1,0.162-0.141c-0.001-0.091,14.487-8.308,14.517-8.387
			c0.844-0.481,1.81-0.745,2.78-0.772c1.086-0.034,2.17,0.214,3.169,0.63c1.496,0.624,2.825,1.602,3.999,2.71
			C489.031,370.985,490.565,373.152,491.87,375.404z"/>
	</g>
	<g id="POLYLINE_00000099649132217687999960000018333053768481514932_">
		
			<line fill="none" stroke="#3A54F5" stroke-width="2.5" stroke-linecap="round" stroke-linejoin="round" stroke-miterlimit="10" x1="479.458" y1="365.884" x2="486.529" y2="361.801"/>
	</g>
	<g id="POLYLINE_00000155124575808520716200000001431405936849624764_">
		
			<line fill="none" stroke="#3A54F5" stroke-width="2.5" stroke-linecap="round" stroke-linejoin="round" stroke-miterlimit="10" x1="481.971" y1="366.082" x2="487.521" y2="362.878"/>
	</g>
	<g id="POLYLINE_00000113342844072518726800000010980222917921869727_">
		
			<path fill="none" stroke="#3A54F5" stroke-width="2.5" stroke-linecap="round" stroke-linejoin="round" stroke-miterlimit="10" d="
			M446.353,319.289c-2.257-1.301-4.627-2.483-7.063-3.411c-1.774-0.669-3.617-1.237-5.495-1.519
			c-0.568-0.079-1.155-0.143-1.729-0.094c-0.253,0.024-0.511,0.072-0.741,0.185c-0.184,0.088-0.335,0.231-0.456,0.393
			c-0.17,0.218-0.298,0.468-0.38,0.732c-0.064,0.232-0.175,0.476-0.135,0.721c0.025,0.156,0.127,0.287,0.254,0.376
			c0.199,0.139,0.433,0.225,0.66,0.307c2.653,0.787,5.413,1.628,7.964,2.706c2.512,1.056,4.971,2.375,7.271,3.835
			c3.488,2.185,6.473,4.895,9.439,7.717c0.169,0.141,0.347,0.284,0.548,0.377c0.144,0.068,0.316,0.09,0.466,0.028
			c0.241-0.102,0.407-0.332,0.583-0.516c0.181-0.202,0.324-0.438,0.422-0.691c0.072-0.174,0.111-0.363,0.097-0.552
			c-0.018-0.275-0.117-0.539-0.234-0.785c-0.243-0.501-0.58-0.962-0.922-1.399c-1.184-1.485-2.597-2.798-4.064-3.999
			C450.816,322.055,448.608,320.593,446.353,319.289z"/>
	</g>
	<g id="POLYLINE_00000011744490007425197480000003429611021056553105_">
		
			<line fill="none" stroke="#3A54F5" stroke-width="2.5" stroke-linecap="round" stroke-linejoin="round" stroke-miterlimit="10" x1="451.992" y1="338.418" x2="456.075" y2="331.347"/>
	</g>
	<g id="POLYLINE_00000014612824016594522020000011744702722117426321_">
		
			<line fill="none" stroke="#3A54F5" stroke-width="2.5" stroke-linecap="round" stroke-linejoin="round" stroke-miterlimit="10" x1="451.793" y1="335.904" x2="454.997" y2="330.355"/>
	</g>
	<g id="POLYLINE_00000008840197491079361870000002425835044092868270_">
		
			<path fill="none" stroke="#3A54F5" stroke-width="2.5" stroke-linecap="round" stroke-linejoin="round" stroke-miterlimit="10" d="
			M442.477,326.008c2.25,1.305,4.415,2.838,6.212,4.729c1.108,1.174,2.086,2.503,2.71,3.999c0.415,0.999,0.663,2.083,0.63,3.169
			c-0.027,0.971-0.291,1.936-0.772,2.78l-8.335,14.436c-0.016,0.027-0.034,0.056-0.052,0.081c-0.041,0.058-0.089,0.113-0.141,0.162
			c-0.125,0.118-0.279,0.206-0.445,0.252c-0.212,0.06-0.442,0.052-0.649-0.021c-0.058-0.021-0.114-0.046-0.168-0.076
			c-0.005,0.005-24.033-13.881-24.04-13.879c-0.248-0.142-0.434-0.387-0.503-0.664c-0.042-0.167-0.044-0.344-0.004-0.511
			c0.017-0.07,0.04-0.138,0.07-0.203c-0.046-0.079,8.392-14.439,8.379-14.522c0.491-0.838,1.195-1.55,2.022-2.059
			c0.923-0.572,1.986-0.899,3.059-1.039c1.608-0.208,3.248-0.025,4.818,0.347C437.808,323.601,440.22,324.71,442.477,326.008z"/>
	</g>
	<g id="POLYLINE_00000057115631517116092680000007902770786144583338_">
		
			<line fill="none" stroke="#3A54F5" stroke-width="2.5" stroke-linecap="round" stroke-linejoin="round" stroke-miterlimit="10" x1="426.967" y1="323.97" x2="431.05" y2="316.898"/>
	</g>
	<g id="POLYLINE_00000146468122814563137800000000724978454025273764_">
		
			<line fill="none" stroke="#3A54F5" stroke-width="2.5" stroke-linecap="round" stroke-linejoin="round" stroke-miterlimit="10" x1="429.243" y1="322.885" x2="432.447" y2="317.336"/>
	</g>
</g>
<g id="_x32_D_x24_AG-OUTLINE">
	<g id="POLYLINE_00000106148883273016731200000015326464344638668718_">
		
			<path fill="none" stroke="#3A54F5" stroke-width="3.25" stroke-linecap="round" stroke-linejoin="round" stroke-miterlimit="10" d="
			M425.014,198.238v50.014H324.986v-50.014h29.468c-0.355-0.034-0.717-0.08-1.057-0.193c-0.171-0.059-0.34-0.139-0.474-0.263
			c-0.158-0.145-0.239-0.353-0.279-0.56c-0.047-0.241-0.056-0.497-0.064-0.743c-0.034-1.756,0.211-4.12,0.345-5.889
			c0.07-0.665,0.347-4.1,0.462-4.693c0.046-0.262,0.105-0.529,0.203-0.777c0.084-0.215,0.204-0.418,0.364-0.585
			c0.171-0.179,0.384-0.315,0.606-0.423c0.546-0.261,1.16-0.365,1.762-0.34l1.451-1.578c0.014-0.622-0.041-1.438,0.076-2.044
			c0.028-0.114,0.069-0.227,0.138-0.323l-0.665-4.446c-0.116,0.001-0.247,0.005-0.355-0.045c-0.126-0.052-0.232-0.151-0.292-0.273
			c-0.031-0.062-0.051-0.13-0.058-0.2c-0.002-0.019-0.003-0.04-0.003-0.06v-2.475c0-0.106,0.03-0.213,0.086-0.303
			c0.102-0.168,0.294-0.276,0.491-0.274c0.02,0.003,1.571-0.003,1.588,0c0.026,0.001,0.054,0.004,0.079,0.008
			c0.004,0.001,0.015,0.002,0.02,0.004c0.104,0.022,0.202,0.073,0.279,0.146c0.084,0.08,0.144,0.186,0.167,0.3
			c0.007,0.035,0.012,0.073,0.012,0.109c0.002,0.006-0.002,2.478,0,2.485c0.001,0.165-0.074,0.329-0.2,0.437l0.585,3.909
			c0.181-0.037,0.548-0.11,0.73-0.144c-0.221-0.447-0.332-0.942-0.393-1.435c-0.069-0.588-0.047-1.2,0.152-1.763
			c0.213-0.598,0.588-1.127,0.962-1.634c0.676-0.914,1.49-1.733,2.407-2.406c5.979-4.402,16.859-4.403,22.84,0
			c0.916,0.673,1.731,1.492,2.407,2.406c0.374,0.507,0.749,1.037,0.962,1.634c0.199,0.563,0.221,1.174,0.152,1.763
			c-0.061,0.492-0.172,0.988-0.393,1.435c0.182,0.034,0.549,0.107,0.73,0.144l0.585-3.909c-0.126-0.108-0.2-0.271-0.2-0.437
			c0.002-0.011-0.002-2.476,0-2.485c0.001-0.036,0.005-0.073,0.012-0.109c0.024-0.114,0.083-0.22,0.167-0.3
			c0.079-0.076,0.181-0.128,0.289-0.148c0.032-0.006,0.066-0.01,0.099-0.01c0.004-0.008,1.571,0.005,1.578,0
			c0.2-0.002,0.396,0.11,0.496,0.283c0.053,0.088,0.081,0.191,0.081,0.294v2.475c0,0.019-0.001,0.041-0.003,0.06
			c-0.007,0.069-0.027,0.138-0.058,0.2c-0.061,0.122-0.167,0.221-0.292,0.273c-0.107,0.05-0.239,0.046-0.355,0.045l-0.665,4.446
			c0.069,0.096,0.11,0.209,0.138,0.323c0.117,0.606,0.062,1.424,0.076,2.044l1.451,1.578c0.602-0.025,1.217,0.079,1.762,0.34
			c0.228,0.111,0.446,0.251,0.62,0.438c0.154,0.164,0.268,0.362,0.35,0.571c0.098,0.248,0.157,0.515,0.203,0.777
			c0.111,0.569,0.393,4.043,0.462,4.693c0.134,1.775,0.378,4.126,0.345,5.889c-0.007,0.245-0.016,0.502-0.064,0.743
			c-0.04,0.207-0.121,0.415-0.279,0.56c-0.139,0.129-0.315,0.21-0.493,0.269c-0.334,0.108-0.69,0.153-1.038,0.187H425.014z"/>
	</g>
	<g id="POLYLINE_00000011719428623471449030000015273681095827076749_">
		
			<path fill="none" stroke="#3A54F5" stroke-width="3.25" stroke-linecap="round" stroke-linejoin="round" stroke-miterlimit="10" d="
			M389.448,313.917c0.24,0.548,0.397,1.138,0.462,1.732c0.02,0.194,0.034,0.404,0.035,0.599l0,16.669
			c0.001,0.272-0.107,0.542-0.295,0.738c-0.153,0.161-0.357,0.273-0.575,0.315c-0.066,0.013-0.135,0.019-0.202,0.019h-27.747
			c-0.29,0.001-0.578-0.122-0.777-0.334c-0.188-0.196-0.296-0.466-0.295-0.738l0-16.669c0.002-0.194,0.013-0.406,0.035-0.599
			c0.065-0.595,0.222-1.184,0.462-1.732v-8.165c-0.274,0.034-0.587,0.078-0.815-0.089c-0.171-0.129-0.233-0.348-0.279-0.548
			c-0.073-0.303-0.137-0.62-0.102-0.932c0.017-0.181,0.044-0.366,0.123-0.532c0.222-0.459,0.699-0.749,1.13-0.989
			c1.559-0.801,3.288-1.251,4.992-1.622c3.08-0.637,6.258-0.864,9.4-0.868c3.141,0.004,6.32,0.231,9.4,0.868
			c1.727,0.378,3.483,0.831,5.056,1.657c0.418,0.24,0.872,0.526,1.078,0.979c0.075,0.171,0.1,0.36,0.115,0.545
			c0.028,0.3-0.034,0.604-0.105,0.894c-0.046,0.195-0.105,0.408-0.268,0.539c-0.229,0.179-0.557,0.132-0.827,0.098V313.917z"/>
	</g>
	<g id="POLYLINE_00000074411219626992720130000015404826733249941950_">
		
			<path fill="none" stroke="#3A54F5" stroke-width="3.25" stroke-linecap="round" stroke-linejoin="round" stroke-miterlimit="10" d="
			M323.033,323.97c0.482,0.355,0.913,0.787,1.266,1.269c0.115,0.158,0.231,0.333,0.33,0.501l8.335,14.436
			c0.137,0.235,0.178,0.522,0.114,0.786c-0.052,0.216-0.172,0.415-0.341,0.56c-0.051,0.044-0.107,0.084-0.166,0.118l-24.03,13.874
			c-0.251,0.146-0.562,0.183-0.84,0.1c-0.261-0.076-0.489-0.256-0.624-0.492l-8.335-14.436c-0.095-0.169-0.191-0.358-0.269-0.536
			c-0.241-0.548-0.4-1.137-0.466-1.731l-4.083-7.071c-0.22,0.167-0.469,0.361-0.751,0.33c-0.212-0.026-0.376-0.185-0.516-0.335
			c-0.215-0.226-0.429-0.468-0.555-0.756c-0.076-0.165-0.145-0.339-0.159-0.522c-0.037-0.508,0.231-0.998,0.484-1.422
			c0.949-1.473,2.221-2.727,3.512-3.901c2.349-2.092,4.988-3.878,7.706-5.452c2.723-1.567,5.589-2.96,8.575-3.948
			c1.685-0.537,3.432-1.021,5.207-1.093c0.482-0.001,1.018,0.02,1.423,0.309c0.151,0.11,0.266,0.262,0.372,0.414
			c0.174,0.246,0.272,0.54,0.356,0.827c0.058,0.192,0.113,0.406,0.037,0.601c-0.109,0.27-0.416,0.393-0.667,0.499L323.033,323.97z"
			/>
	</g>
	<g id="POLYLINE_00000132793971508063125380000002550467542948788637_">
		
			<path fill="none" stroke="#3A54F5" stroke-width="3.25" stroke-linecap="round" stroke-linejoin="round" stroke-miterlimit="10" d="
			M249.023,386.826c-0.107,0.254-0.226,0.547-0.485,0.661c-0.197,0.083-0.418,0.027-0.614-0.032
			c-0.299-0.088-0.605-0.191-0.859-0.378c-0.148-0.105-0.295-0.221-0.399-0.372c-0.286-0.422-0.299-0.98-0.292-1.473
			c0.086-1.75,0.56-3.473,1.091-5.135c0.988-2.986,2.381-5.852,3.948-8.575c1.575-2.718,3.36-5.358,5.452-7.706
			c1.191-1.307,2.461-2.6,3.963-3.55c0.417-0.242,0.892-0.492,1.387-0.444c0.186,0.02,0.362,0.094,0.529,0.173
			c0.274,0.126,0.506,0.332,0.722,0.538c0.146,0.137,0.301,0.295,0.333,0.502c0.041,0.288-0.164,0.548-0.328,0.765l7.071,4.083
			c0.595,0.066,1.184,0.225,1.731,0.466c0.178,0.079,0.366,0.172,0.536,0.269l14.436,8.335c0.236,0.135,0.416,0.363,0.492,0.624
			c0.063,0.213,0.058,0.445-0.015,0.655c-0.022,0.064-0.051,0.126-0.084,0.185l-13.874,24.03c-0.144,0.252-0.395,0.44-0.678,0.506
			c-0.264,0.064-0.552,0.023-0.786-0.114c0,0-14.436-8.335-14.436-8.335c-0.167-0.099-0.345-0.214-0.501-0.33
			c-0.482-0.354-0.915-0.785-1.269-1.266L249.023,386.826z"/>
	</g>
	<g id="POLYLINE_00000177475157232734896880000009880930689424084399_">
		
			<path fill="none" stroke="#3A54F5" stroke-width="3.25" stroke-linecap="round" stroke-linejoin="round" stroke-miterlimit="10" d="
			M237.876,457.324c0.034,0.274,0.078,0.587-0.089,0.815c-0.129,0.171-0.348,0.233-0.548,0.279c-0.303,0.073-0.62,0.137-0.933,0.102
			c-0.181-0.017-0.366-0.044-0.532-0.123c-0.459-0.222-0.749-0.699-0.989-1.13c-0.801-1.559-1.251-3.288-1.622-4.992
			c-0.637-3.08-0.864-6.258-0.868-9.4c0.004-3.141,0.231-6.32,0.868-9.4c0.378-1.727,0.831-3.483,1.657-5.056
			c0.24-0.418,0.526-0.872,0.979-1.078c0.171-0.075,0.36-0.1,0.545-0.115c0.3-0.028,0.604,0.034,0.894,0.105
			c0.195,0.046,0.408,0.105,0.539,0.268c0.179,0.229,0.132,0.557,0.098,0.827h8.165c0.548-0.24,1.138-0.397,1.732-0.462
			c0.194-0.02,0.404-0.034,0.599-0.035c0,0,16.669,0,16.669,0c0.272-0.001,0.542,0.107,0.738,0.295
			c0.161,0.153,0.273,0.357,0.315,0.575c0.013,0.066,0.019,0.135,0.019,0.202v27.747c0.001,0.29-0.122,0.578-0.334,0.777
			c-0.196,0.188-0.466,0.296-0.738,0.295c0,0-16.669,0-16.669,0c-0.194-0.002-0.406-0.013-0.599-0.035
			c-0.595-0.065-1.184-0.222-1.732-0.462H237.876z"/>
	</g>
	<g id="POLYLINE_00000047756302621238531000000001693748071924448144_">
		
			<path fill="none" stroke="#3A54F5" stroke-width="3.25" stroke-linecap="round" stroke-linejoin="round" stroke-miterlimit="10" d="
			M263.471,523.95c0.167,0.22,0.361,0.469,0.33,0.751c-0.026,0.212-0.185,0.376-0.335,0.516c-0.226,0.215-0.468,0.429-0.756,0.555
			c-0.165,0.076-0.339,0.145-0.522,0.159c-0.508,0.037-0.998-0.231-1.422-0.484c-1.473-0.949-2.727-2.221-3.901-3.512
			c-2.092-2.349-3.878-4.988-5.452-7.706c-1.567-2.723-2.96-5.589-3.948-8.575c-0.537-1.685-1.021-3.432-1.093-5.207
			c-0.001-0.482,0.02-1.018,0.309-1.423c0.11-0.151,0.262-0.266,0.414-0.372c0.246-0.174,0.54-0.272,0.827-0.356
			c0.192-0.058,0.406-0.113,0.601-0.037c0.27,0.109,0.393,0.416,0.499,0.667l7.071-4.083c0.355-0.482,0.787-0.913,1.269-1.266
			c0.158-0.115,0.333-0.231,0.501-0.33c0,0,14.436-8.335,14.436-8.335c0.235-0.137,0.522-0.178,0.786-0.114
			c0.216,0.052,0.415,0.172,0.56,0.341c0.044,0.051,0.084,0.107,0.118,0.166l13.874,24.03c0.146,0.251,0.183,0.562,0.1,0.84
			c-0.076,0.261-0.256,0.489-0.492,0.624l-14.436,8.335c-0.169,0.095-0.358,0.191-0.536,0.269c-0.548,0.241-1.137,0.4-1.731,0.466
			L263.471,523.95z"/>
	</g>
	<g id="POLYLINE_00000179608187127628607400000004710414152109285014_">
		
			<path fill="none" stroke="#3A54F5" stroke-width="3.25" stroke-linecap="round" stroke-linejoin="round" stroke-miterlimit="10" d="
			M303.647,566.462c-3.755-2.198-7.422-4.738-10.267-8.064c-0.509-0.625-1.033-1.276-1.326-2.035
			c-0.071-0.198-0.121-0.407-0.113-0.619c0.005-0.176,0.06-0.346,0.13-0.507c0.154-0.377,0.435-0.685,0.723-0.964
			c0.098-0.089,0.212-0.168,0.344-0.193c0.296-0.055,0.564,0.156,0.787,0.325l4.083-7.071c0.066-0.595,0.225-1.184,0.466-1.731
			c0.079-0.178,0.172-0.366,0.269-0.536l8.335-14.436c0.135-0.236,0.363-0.416,0.624-0.492c0.213-0.063,0.445-0.058,0.655,0.015
			c0.064,0.022,0.126,0.051,0.185,0.084l24.03,13.874c0.252,0.144,0.44,0.395,0.506,0.678c0.064,0.264,0.023,0.552-0.114,0.786
			l-8.335,14.436c-0.099,0.167-0.214,0.345-0.33,0.501c-0.354,0.483-0.785,0.915-1.266,1.269l-4.083,7.071
			c0.257,0.109,0.573,0.235,0.674,0.519c0.046,0.132,0.032,0.275,0.001,0.409c-0.099,0.385-0.224,0.777-0.47,1.094
			c-0.104,0.141-0.223,0.274-0.374,0.366c-0.179,0.113-0.386,0.174-0.592,0.211c-0.804,0.126-1.629-0.003-2.425-0.13
			C311.461,570.521,307.428,568.616,303.647,566.462z"/>
	</g>
	<g id="POLYLINE_00000116234480525774819910000012785174538936118147_">
		
			<path fill="none" stroke="#3A54F5" stroke-width="3.25" stroke-linecap="round" stroke-linejoin="round" stroke-miterlimit="10" d="
			M375,585.581c-4.351-0.026-8.796-0.392-12.924-1.85c-0.753-0.287-1.533-0.589-2.166-1.1c-0.161-0.135-0.309-0.292-0.407-0.479
			c-0.084-0.155-0.121-0.33-0.14-0.504c-0.055-0.403,0.034-0.811,0.144-1.197c0.04-0.126,0.1-0.251,0.201-0.339
			c0.229-0.196,0.566-0.147,0.843-0.112v-8.165c-0.24-0.548-0.397-1.138-0.462-1.732c-0.02-0.194-0.034-0.404-0.035-0.599l0-16.669
			c-0.001-0.272,0.107-0.542,0.295-0.738c0.153-0.161,0.357-0.273,0.575-0.315c0.066-0.013,0.135-0.019,0.202-0.019h27.747
			c0.29-0.001,0.578,0.122,0.777,0.334c0.188,0.196,0.296,0.466,0.295,0.738l0,16.669c-0.002,0.194-0.013,0.406-0.035,0.599
			c-0.065,0.595-0.222,1.184-0.462,1.732V580c0.277-0.034,0.614-0.083,0.843,0.112c0.105,0.091,0.165,0.222,0.206,0.353
			c0.107,0.382,0.195,0.785,0.14,1.183c-0.02,0.174-0.056,0.349-0.14,0.504c-0.099,0.187-0.247,0.344-0.407,0.479
			c-0.633,0.511-1.413,0.812-2.166,1.1C383.796,585.189,379.351,585.556,375,585.581z"/>
	</g>
	<g id="POLYLINE_00000127735916457769398580000005755231724351197606_">
		
			<path fill="none" stroke="#3A54F5" stroke-width="3.25" stroke-linecap="round" stroke-linejoin="round" stroke-miterlimit="10" d="
			M446.353,566.462c-3.781,2.153-7.814,4.059-12.117,4.86c-0.796,0.128-1.622,0.256-2.425,0.131
			c-0.207-0.037-0.413-0.099-0.593-0.211c-0.15-0.092-0.27-0.226-0.374-0.366c-0.249-0.321-0.376-0.719-0.474-1.109
			c-0.028-0.129-0.039-0.268,0.005-0.395c0.101-0.284,0.417-0.41,0.674-0.519l-4.083-7.071c-0.482-0.355-0.913-0.787-1.266-1.269
			c-0.115-0.158-0.231-0.333-0.33-0.501c0,0-8.335-14.436-8.335-14.436c-0.137-0.235-0.178-0.522-0.114-0.786
			c0.052-0.216,0.172-0.415,0.341-0.56c0.051-0.044,0.107-0.084,0.166-0.118l24.03-13.874c0.251-0.146,0.562-0.183,0.84-0.1
			c0.261,0.076,0.489,0.256,0.624,0.492l8.335,14.436c0.095,0.169,0.191,0.358,0.269,0.536c0.241,0.548,0.4,1.137,0.466,1.731
			l4.083,7.071c0.223-0.168,0.49-0.379,0.787-0.325c0.137,0.026,0.254,0.11,0.355,0.203c0.284,0.278,0.561,0.582,0.713,0.955
			c0.07,0.16,0.126,0.331,0.13,0.507c0.008,0.211-0.042,0.421-0.113,0.619c-0.293,0.759-0.817,1.41-1.326,2.035
			C453.775,561.725,450.108,564.265,446.353,566.462z"/>
	</g>
	<g id="POLYLINE_00000018942568823194710450000012894304139383492542_">
		
			<path fill="none" stroke="#3A54F5" stroke-width="3.25" stroke-linecap="round" stroke-linejoin="round" stroke-miterlimit="10" d="
			M498.587,514.228c-2.198,3.755-4.738,7.422-8.064,10.267c-0.625,0.509-1.276,1.033-2.035,1.326
			c-0.198,0.071-0.407,0.121-0.619,0.113c-0.176-0.005-0.346-0.06-0.507-0.13c-0.377-0.154-0.685-0.435-0.964-0.723
			c-0.089-0.098-0.168-0.212-0.193-0.344c-0.055-0.296,0.156-0.564,0.325-0.787l-7.071-4.083c-0.595-0.066-1.184-0.225-1.731-0.466
			c-0.178-0.079-0.366-0.172-0.536-0.269c0,0-14.436-8.335-14.436-8.335c-0.236-0.135-0.416-0.363-0.492-0.624
			c-0.063-0.213-0.058-0.445,0.015-0.655c0.022-0.064,0.051-0.126,0.084-0.185l13.874-24.03c0.144-0.252,0.395-0.44,0.678-0.506
			c0.264-0.064,0.552-0.023,0.786,0.114l14.436,8.335c0.167,0.099,0.345,0.214,0.501,0.33c0.482,0.354,0.915,0.785,1.269,1.266
			l7.071,4.083c0.109-0.257,0.235-0.573,0.519-0.674c0.132-0.046,0.275-0.032,0.409-0.001c0.385,0.099,0.777,0.224,1.094,0.47
			c0.141,0.104,0.274,0.223,0.366,0.374c0.113,0.179,0.174,0.386,0.211,0.592c0.126,0.804-0.003,1.629-0.131,2.425
			C502.645,506.415,500.74,510.447,498.587,514.228z"/>
	</g>
	<g id="POLYLINE_00000129896462177226017060000015906575335884912051_">
		
			<path fill="none" stroke="#3A54F5" stroke-width="3.25" stroke-linecap="round" stroke-linejoin="round" stroke-miterlimit="10" d="
			M503.959,457.324c-0.548,0.24-1.138,0.397-1.732,0.462c-0.194,0.02-0.404,0.034-0.599,0.035l-16.669,0
			c-0.272,0.001-0.542-0.107-0.738-0.295c-0.161-0.153-0.273-0.357-0.315-0.575c-0.013-0.066-0.019-0.135-0.019-0.202
			c0,0,0-27.747,0-27.747c-0.001-0.29,0.122-0.578,0.334-0.777c0.196-0.188,0.466-0.296,0.738-0.295l16.669,0
			c0.194,0.002,0.406,0.013,0.599,0.035c0.595,0.065,1.184,0.222,1.732,0.462h8.165c-0.034-0.274-0.078-0.587,0.089-0.815
			c0.129-0.171,0.348-0.233,0.548-0.279c0.303-0.073,0.62-0.137,0.932-0.102c0.181,0.017,0.366,0.044,0.532,0.123
			c0.458,0.222,0.749,0.699,0.989,1.13c0.801,1.559,1.251,3.288,1.622,4.992c0.637,3.08,0.864,6.258,0.868,9.4
			c-0.004,3.141-0.231,6.32-0.868,9.4c-0.378,1.727-0.831,3.483-1.657,5.056c-0.24,0.418-0.526,0.872-0.979,1.078
			c-0.171,0.075-0.36,0.1-0.545,0.115c-0.3,0.028-0.604-0.034-0.894-0.105c-0.195-0.046-0.408-0.105-0.539-0.268
			c-0.179-0.229-0.132-0.557-0.098-0.827H503.959z"/>
	</g>
	<g id="POLYLINE_00000129202610576791985120000015401802555905131410_">
		
			<path fill="none" stroke="#3A54F5" stroke-width="3.25" stroke-linecap="round" stroke-linejoin="round" stroke-miterlimit="10" d="
			M493.906,390.909c-0.355,0.482-0.787,0.913-1.269,1.266c-0.158,0.115-0.333,0.231-0.501,0.33c0,0-14.436,8.335-14.436,8.335
			c-0.235,0.137-0.522,0.178-0.786,0.114c-0.216-0.052-0.415-0.172-0.56-0.341c-0.044-0.051-0.084-0.107-0.118-0.166l-13.874-24.03
			c-0.146-0.251-0.183-0.562-0.1-0.84c0.076-0.261,0.256-0.489,0.492-0.624l14.436-8.335c0.169-0.095,0.358-0.191,0.536-0.269
			c0.548-0.241,1.137-0.4,1.731-0.466l7.071-4.083c-0.167-0.22-0.361-0.469-0.33-0.751c0.026-0.212,0.185-0.376,0.335-0.516
			c0.226-0.215,0.468-0.429,0.756-0.555c0.165-0.076,0.339-0.145,0.522-0.159c0.508-0.037,0.998,0.231,1.422,0.484
			c1.473,0.949,2.727,2.221,3.901,3.512c2.092,2.349,3.878,4.988,5.452,7.706c1.567,2.723,2.96,5.589,3.948,8.575
			c0.537,1.685,1.021,3.432,1.093,5.207c0.001,0.482-0.02,1.018-0.309,1.423c-0.11,0.151-0.262,0.266-0.414,0.372
			c-0.246,0.174-0.54,0.272-0.827,0.356c-0.192,0.058-0.406,0.113-0.601,0.037c-0.27-0.109-0.393-0.416-0.499-0.667L493.906,390.909
			z"/>
	</g>
	<g id="POLYLINE_00000173129207048803154570000006514581383469205135_">
		
			<path fill="none" stroke="#3A54F5" stroke-width="3.25" stroke-linecap="round" stroke-linejoin="round" stroke-miterlimit="10" d="
			M451.992,338.418c-0.066,0.595-0.225,1.184-0.466,1.731c-0.079,0.178-0.172,0.366-0.269,0.536l-8.335,14.436
			c-0.135,0.236-0.363,0.416-0.624,0.492c-0.213,0.063-0.445,0.058-0.655-0.015c-0.064-0.022-0.126-0.051-0.185-0.084l-24.03-13.874
			c-0.252-0.144-0.44-0.395-0.506-0.678c-0.064-0.264-0.023-0.552,0.114-0.786l8.335-14.436c0.099-0.167,0.214-0.345,0.33-0.501
			c0.354-0.482,0.785-0.915,1.266-1.269l4.083-7.071c-0.254-0.107-0.547-0.226-0.661-0.485c-0.083-0.197-0.027-0.418,0.032-0.614
			c0.088-0.299,0.191-0.605,0.378-0.859c0.105-0.148,0.221-0.295,0.372-0.399c0.422-0.286,0.98-0.299,1.473-0.292
			c1.75,0.086,3.473,0.56,5.135,1.091c2.986,0.988,5.852,2.381,8.575,3.948c2.718,1.575,5.358,3.36,7.706,5.452
			c1.307,1.191,2.6,2.461,3.55,3.963c0.242,0.417,0.492,0.892,0.444,1.387c-0.02,0.186-0.094,0.362-0.173,0.529
			c-0.126,0.274-0.332,0.506-0.538,0.722c-0.137,0.146-0.295,0.301-0.502,0.333c-0.288,0.041-0.548-0.164-0.765-0.328
			L451.992,338.418z"/>
	</g>
</g>
</svg>
