<?xml version="1.0" encoding="utf-8"?>
<!-- Generator: Adobe Illustrator 25.2.1, SVG Export Plug-In . SVG Version: 6.00 Build 0)  -->
<!DOCTYPE svg PUBLIC "-//W3C//DTD SVG 1.1//EN" "http://www.w3.org/Graphics/SVG/1.1/DTD/svg11.dtd" [
	<!ENTITY ns_extend "http://ns.adobe.com/Extensibility/1.0/">
	<!ENTITY ns_ai "http://ns.adobe.com/AdobeIllustrator/10.0/">
	<!ENTITY ns_graphs "http://ns.adobe.com/Graphs/1.0/">
	<!ENTITY ns_vars "http://ns.adobe.com/Variables/1.0/">
	<!ENTITY ns_imrep "http://ns.adobe.com/ImageReplacement/1.0/">
	<!ENTITY ns_sfw "http://ns.adobe.com/SaveForWeb/1.0/">
	<!ENTITY ns_custom "http://ns.adobe.com/GenericCustomNamespace/1.0/">
	<!ENTITY ns_adobe_xpath "http://ns.adobe.com/XPath/1.0/">
]>
<svg version="1.1" xmlns:x="&ns_extend;" xmlns:i="&ns_ai;" xmlns:graph="&ns_graphs;"
	 xmlns="http://www.w3.org/2000/svg" xmlns:xlink="http://www.w3.org/1999/xlink" x="0px" y="0px" width="750px" height="750px"
	 viewBox="0 0 750 750" enable-background="new 0 0 750 750" xml:space="preserve">
<metadata>
	<sfw  xmlns="&ns_sfw;">
		<slices></slices>
		<sliceSourceBounds  bottomLeftOrigin="true" height="11146.31" width="6321" x="-2000" y="-2314"></sliceSourceBounds>
	</sfw>
</metadata>
<g id="FILL-BACKGROUND">
	<rect fill="#FFFFFF" width="750" height="750"/>
</g>
<g id="N-DIMENSIONS">
</g>
<g id="N-TEXT">
</g>
<g id="_x32_D_x24_AG-DIAGRAM">
	<g id="POLYLINE_382_">
		<g>
			<g>
				
					<line fill="none" stroke="#1B7FFF" stroke-width="3.25" stroke-linecap="round" stroke-linejoin="round" x1="184.276" y1="642.013" x2="186.276" y2="642.013"/>
				
					<line fill="none" stroke="#1B7FFF" stroke-width="3.25" stroke-linecap="round" stroke-linejoin="round" stroke-dasharray="3.9627,6.9347" x1="193.211" y1="642.013" x2="560.256" y2="642.013"/>
				
					<line fill="none" stroke="#1B7FFF" stroke-width="3.25" stroke-linecap="round" stroke-linejoin="round" x1="563.724" y1="642.013" x2="565.724" y2="642.013"/>
			</g>
		</g>
	</g>
</g>
<g id="_x32_D_x24_AG-DETAILS-DIAGRAM">
</g>
<g id="_x32_D_x24_AG-DETAILS">
	<g id="POLYLINE_198_">
		<path fill="none" stroke="#1B7FFF" stroke-width="2" stroke-linecap="round" stroke-linejoin="round" stroke-miterlimit="10" d="
			M565.724,114.344c-95.075,0-286.397,0-381.448,0"/>
	</g>
</g>
<g id="_x32_D_x24_AG-FURNITURE">
	<g id="POLYLINE_374_">
		
			<path fill="none" stroke="#1B7FFF" stroke-width="2.75" stroke-linecap="round" stroke-linejoin="round" stroke-miterlimit="10" d="
			M375,139.143h-14.195l-16.91-15.136h-18.763l-1.917-1.716c25.814,0,77.761,0,103.569,0l-1.917,1.716h-18.763l-16.91,15.136H375z"
			/>
	</g>
	<g id="POLYLINE_373_">
		
			<rect x="362.285" y="139.143" fill="none" stroke="#1B7FFF" stroke-width="2.75" stroke-linecap="round" stroke-linejoin="round" stroke-miterlimit="10" width="25.43" height="402.997"/>
	</g>
	<g id="POLYLINE_372_">
		
			<path fill="none" stroke="#1B7FFF" stroke-width="2.75" stroke-linecap="round" stroke-linejoin="round" stroke-miterlimit="10" d="
			M387.715,626.969c0.016-4.31-2.248-8.432-5.894-10.731c-6.579-4.171-15.315-1.515-18.46,5.612c-1.43,3.216-1.431,7.022,0,10.238
			c3.145,7.127,11.881,9.782,18.46,5.612C385.467,635.401,387.731,631.279,387.715,626.969z"/>
	</g>
	<g id="POLYLINE_371_">
		
			<polyline fill="none" stroke="#1B7FFF" stroke-width="2.75" stroke-linecap="round" stroke-linejoin="round" stroke-miterlimit="10" points="
			369.187,638.277 369.187,642.013 380.813,642.013 380.813,638.277 		"/>
	</g>
	<g id="POLYLINE_370_">
		
			<path fill="none" stroke="#1B7FFF" stroke-width="2.75" stroke-linecap="round" stroke-linejoin="round" stroke-miterlimit="10" d="
			M387.715,626.969c0,0,0-41.324,0-41.324c-0.005-0.073,0.002-0.21-0.003-0.282c-0.011-0.478-0.049-0.969-0.114-1.443
			c-0.217-1.591-0.741-3.143-1.533-4.54c-2.226-3.962-6.52-6.466-11.064-6.45c-4.601-0.016-8.941,2.551-11.143,6.591
			c-0.748,1.359-1.244,2.861-1.454,4.399c-0.065,0.474-0.104,0.965-0.114,1.443c0.004,0.066-0.007,0.215-0.003,0.282
			c0,0,0,41.324,0,41.324"/>
	</g>
	<g id="POLYLINE_369_">
		
			<polyline fill="none" stroke="#1B7FFF" stroke-width="2.75" stroke-linecap="round" stroke-linejoin="round" stroke-miterlimit="10" points="
			362.285,574.304 362.285,542.14 387.715,542.14 387.715,574.304 		"/>
	</g>
	<g id="POLYLINE_368_">
		
			<path fill="none" stroke="#1B7FFF" stroke-width="2.75" stroke-linecap="round" stroke-linejoin="round" stroke-miterlimit="10" d="
			M375,107.987H184.276v6.357l45.448,7.947c72.419,0,218.15,0,290.551,0l45.448-7.947v-6.357H375z"/>
	</g>
	<g id="POLYLINE_367_">
		
			<path fill="none" stroke="#1B7FFF" stroke-width="2.75" stroke-linecap="round" stroke-linejoin="round" stroke-miterlimit="10" d="
			M222.057,642.013c-0.008-0.046,0.006-4.839-0.001-4.88c-0.002-0.074-0.012-0.148-0.029-0.22c-0.063-0.273-0.221-0.515-0.413-0.715
			c-0.478-0.488-1.125-0.773-1.768-0.973c-0.554-0.167-1.134-0.266-1.71-0.312c-0.505-0.052-2.502-0.022-3.044-0.029
			c-0.963,0.003-1.938,0.138-2.844,0.475c-0.503,0.192-0.996,0.45-1.375,0.839c-0.192,0.2-0.35,0.442-0.413,0.715
			c-0.017,0.072-0.027,0.146-0.029,0.22c-0.03,0.046,0.02,4.834-0.001,4.88"/>
	</g>
	<g id="POLYLINE_366_">
		
			<path fill="none" stroke="#1B7FFF" stroke-width="2.75" stroke-linecap="round" stroke-linejoin="round" stroke-miterlimit="10" d="
			M364.083,579.127c-0.476-1.639-0.995-3.312-1.798-4.823c-0.077,0.013-161.77,40.089-161.862,40.115
			c-0.227,0.065-0.46,0.144-0.677,0.237c-0.595,0.251-1.142,0.62-1.586,1.089c-1.322,1.404-1.651,3.428-1.683,5.29
			c-0.011,3.187,0.726,6.354,1.611,9.4c0.566,1.843,1.255,3.683,2.265,5.333c0.648,1.044,1.448,2.032,2.494,2.698
			c0.736,0.471,1.6,0.745,2.476,0.754c0.341,0.006,0.687-0.026,1.023-0.086c0.111,0.014,3.872-0.963,4.084-0.999"/>
	</g>
	<g id="POLYLINE_359_">
		
			<path fill="none" stroke="#1B7FFF" stroke-width="2.75" stroke-linecap="round" stroke-linejoin="round" stroke-miterlimit="10" d="
			M220.742,635.579c5.803-1.438,131.277-32.532,141.543-35.076"/>
	</g>
	<g id="POLYLINE_356_">
		
			<path fill="none" stroke="#1B7FFF" stroke-width="2.75" stroke-linecap="round" stroke-linejoin="round" stroke-miterlimit="10" d="
			M527.943,642.013c0.008-0.046-0.006-4.839,0.001-4.88c0.003-0.074,0.012-0.148,0.029-0.22c0.063-0.273,0.221-0.515,0.413-0.715
			c0.478-0.488,1.125-0.773,1.768-0.973c0.554-0.167,1.134-0.266,1.71-0.312c0.505-0.052,2.502-0.022,3.044-0.029
			c0.963,0.003,1.938,0.138,2.844,0.475c0.503,0.192,0.996,0.45,1.375,0.839c0.192,0.2,0.35,0.442,0.413,0.715
			c0.017,0.072,0.027,0.146,0.029,0.22c0.03,0.046-0.02,4.834,0.001,4.88"/>
	</g>
	<g id="POLYLINE_355_">
		
			<path fill="none" stroke="#1B7FFF" stroke-width="2.75" stroke-linecap="round" stroke-linejoin="round" stroke-miterlimit="10" d="
			M385.917,579.127c0.476-1.639,0.995-3.312,1.798-4.823c0.077,0.013,161.77,40.089,161.862,40.115
			c0.227,0.065,0.46,0.144,0.677,0.237c0.595,0.251,1.142,0.62,1.586,1.089c1.322,1.404,1.651,3.428,1.683,5.29
			c0.011,3.187-0.726,6.354-1.611,9.4c-0.566,1.843-1.255,3.683-2.265,5.333c-0.648,1.044-1.448,2.032-2.494,2.698
			c-0.736,0.471-1.6,0.745-2.476,0.754c-0.341,0.006-0.687-0.026-1.023-0.086c-0.111,0.014-3.872-0.963-4.084-0.999"/>
	</g>
	<g id="POLYLINE_191_">
		
			<path fill="none" stroke="#1B7FFF" stroke-width="2.75" stroke-linecap="round" stroke-linejoin="round" stroke-miterlimit="10" d="
			M529.258,635.579c-5.803-1.438-131.277-32.532-141.543-35.076"/>
	</g>
</g>
<g id="_x32_D_x24_AG-OUTLINE">
	<g id="POLYLINE_44_">
		
			<path fill="none" stroke="#1B7FFF" stroke-width="3.5" stroke-linecap="round" stroke-linejoin="round" stroke-miterlimit="10" d="
			M380.813,638.277v3.736h-11.626v-3.736c-2.991-1.523-5.316-4.281-6.314-7.486c-0.516-1.596-0.658-3.295-0.562-4.964l-0.026-25.323
			l-141.543,35.076c-1.033-0.51-2.204-0.688-3.347-0.695c-0.566,0.008-2.516-0.023-3.044,0.029c-0.576,0.046-1.156,0.145-1.71,0.312
			c-0.539,0.165-1.07,0.393-1.515,0.744c-0.236,0.188-0.45,0.417-0.579,0.693c-0.051,0.108-0.087,0.224-0.105,0.343
			c-0.025,0.101-0.007,1.007-0.012,1.13c-0.205,0.046-3.99,1.001-4.084,0.999c-0.336,0.06-0.681,0.093-1.023,0.086
			c-0.876-0.009-1.74-0.283-2.476-0.755c-1.046-0.666-1.846-1.654-2.494-2.698c-1.011-1.649-1.7-3.489-2.265-5.333
			c-0.886-3.045-1.623-6.213-1.612-9.4c0.032-1.862,0.361-3.886,1.683-5.29c0.444-0.469,0.991-0.838,1.586-1.089
			c0.216-0.093,0.45-0.172,0.676-0.237c0.251-0.121,161.616-40.015,161.863-40.115V542.14V139.143h-1.48l-16.91-15.136h-18.763
			l-1.917-1.716h-93.491l-45.448-7.947v-6.357c95.075,0,286.397,0,381.448,0v6.357l-45.448,7.947h-93.491l-1.917,1.716h-18.763
			l-16.91,15.136h-1.48V542.14v32.164c0.077,0.013,161.77,40.089,161.862,40.115c0.227,0.065,0.46,0.144,0.677,0.237
			c0.595,0.251,1.142,0.62,1.586,1.089c1.322,1.404,1.651,3.428,1.683,5.29c0.011,3.187-0.726,6.354-1.611,9.4
			c-0.566,1.843-1.255,3.683-2.265,5.333c-0.648,1.044-1.448,2.032-2.494,2.698c-0.736,0.471-1.6,0.745-2.476,0.754
			c-0.341,0.006-0.687-0.026-1.023-0.086c-0.111,0.014-3.872-0.963-4.084-0.999c0.003-0.112,0.005-1.033-0.01-1.117
			c-0.018-0.128-0.057-0.253-0.113-0.369c-0.136-0.282-0.359-0.514-0.604-0.704c-0.439-0.336-0.958-0.557-1.484-0.719
			c-0.554-0.167-1.134-0.266-1.71-0.312c-0.52-0.052-2.492-0.021-3.044-0.029c-1.143,0.007-2.314,0.186-3.347,0.695l-141.543-35.076
			l-0.026,25.323c0.095,1.669-0.046,3.368-0.562,4.964C386.13,633.996,383.804,636.754,380.813,638.277z"/>
	</g>
</g>
</svg>
